<?xml version="1.0" encoding="UTF-8" standalone="no"?>
<!-- Created with Inkscape (http://www.inkscape.org/) -->

<svg
   xmlns:dc="http://purl.org/dc/elements/1.1/"
   xmlns:cc="http://creativecommons.org/ns#"
   xmlns:rdf="http://www.w3.org/1999/02/22-rdf-syntax-ns#"
   xmlns:svg="http://www.w3.org/2000/svg"
   xmlns="http://www.w3.org/2000/svg"
   xmlns:sodipodi="http://sodipodi.sourceforge.net/DTD/sodipodi-0.dtd"
   xmlns:inkscape="http://www.inkscape.org/namespaces/inkscape"
   id="svg2"
   version="1.1"
   inkscape:version="0.91 r13725"
   xml:space="preserve"
   width="978"
   height="350"
   viewBox="0 0 978 350"
   sodipodi:docname="awesome.svg"><metadata
     id="metadata8"><rdf:RDF><cc:Work
         rdf:about=""><dc:format>image/svg+xml</dc:format><dc:type
           rdf:resource="http://purl.org/dc/dcmitype/StillImage" /><dc:title></dc:title></cc:Work></rdf:RDF></metadata><defs
     id="defs6"><clipPath
       clipPathUnits="userSpaceOnUse"
       id="clipPath18"><path
         d="M 0,800 800,800 800,0 0,0 0,800 Z"
         id="path20"
         inkscape:connector-curvature="0" /></clipPath><clipPath
       clipPathUnits="userSpaceOnUse"
       id="clipPath26"><path
         d="m 120.551,596.299 569.491,0 0,-381.439 -569.491,0 0,381.439 z"
         id="path28"
         inkscape:connector-curvature="0" /></clipPath><clipPath
       clipPathUnits="userSpaceOnUse"
       id="clipPath56"><path
         d="m 182.358,326.274 448.459,0 0,-66.719 -448.459,0 0,66.719 z"
         id="path58"
         inkscape:connector-curvature="0" /></clipPath><clipPath
       clipPathUnits="userSpaceOnUse"
       id="clipPath904"><path
         d="m 352.682,521.405 125.097,0 0,-79.571 -125.097,0 0,79.571 z"
         id="path906"
         inkscape:connector-curvature="0" /></clipPath></defs><sodipodi:namedview
     pagecolor="#ffffff"
     bordercolor="#666666"
     borderopacity="1"
     objecttolerance="10"
     gridtolerance="10"
     guidetolerance="10"
     inkscape:pageopacity="0"
     inkscape:pageshadow="2"
     inkscape:window-width="1448"
     inkscape:window-height="862"
     id="namedview4"
     showgrid="false"
     inkscape:zoom="0.50014229"
     inkscape:cx="296.62987"
     inkscape:cy="462.72546"
     inkscape:window-x="0"
     inkscape:window-y="0"
     inkscape:window-maximized="0"
     inkscape:current-layer="g10" /><g
     id="g10"
     inkscape:groupmode="layer"
     inkscape:label="08"
     transform="matrix(1.25,0,0,-1.25,0,350)"><g
       id="g8615"
       transform="translate(-6.7252666e-6,0)"><g
         transform="translate(-2.778928e-6,0)"
         id="g8154"><g
           id="g22"
           transform="matrix(0.38876988,0,0,0.38876988,233.01708,-4.5305291)"><g
             id="g24" /><g
             id="g30"><g
               clip-path="url(#clipPath26)"
               id="g32"
               style="opacity:0.19999701"><g
                 transform="translate(385.4912,226.0518)"
                 id="g34"><path
                   d="m 0,0 303.918,0.532 -65.488,109.449 -0.304,0 c 0.091,0.713 0.154,1.434 0.154,2.173 l 0,241.148 c 0,9.359 -7.492,16.946 -16.731,16.946 l -401.547,0 c -9.241,0 -16.731,-7.587 -16.731,-16.946 l 0,-241.148 c 0,-0.969 0.098,-1.913 0.252,-2.837 l -0.134,2.886 -68.329,-112.664 0.69,0 c 0.314,-5.966 6.625,-10.73 14.384,-10.73 l 540.005,0 c 7.959,0 14.412,5.01 14.412,11.191 L 0,0 Z"
                   style="fill:#808080;fill-opacity:1;fill-rule:evenodd;stroke:none"
                   id="path36"
                   inkscape:connector-curvature="0" /></g></g></g></g><g
           id="g38"
           transform="matrix(0.38876988,0,0,0.38876988,476.70671,130.51157)"><path
             d="m 0,0 c 0,-9.257 -7.504,-16.761 -16.76,-16.761 l -402.253,0 c -9.257,0 -16.76,7.504 -16.76,16.761 l 0,238.515 c 0,9.256 7.503,16.76 16.76,16.76 l 402.253,0 c 9.256,0 16.76,-7.504 16.76,-16.76 L 0,0 Z"
             style="fill:#666666;fill-opacity:1;fill-rule:evenodd;stroke:none"
             id="path40"
             inkscape:connector-curvature="0" /></g><g
           id="g42"
           transform="matrix(0.38876988,0,0,0.38876988,307.23243,129.42083)"><path
             d="m 0,0 -68.179,-108.579 569.857,0.983 L 436.075,0.657 0,0 Z"
             style="fill:#c1c1c1;fill-opacity:1;fill-rule:evenodd;stroke:none"
             id="path44"
             inkscape:connector-curvature="0" /></g><g
           id="g46"
           transform="matrix(0.38876988,0,0,0.38876988,502.51625,87.386606)"><path
             d="m 0,0 0,0 c 0,-6.114 -6.465,-11.071 -14.438,-11.071 l -540.953,0 c -7.974,0 -14.439,4.957 -14.439,11.071"
             style="fill:#666666;fill-opacity:1;fill-rule:evenodd;stroke:none"
             id="path48"
             inkscape:connector-curvature="0" /></g><path
           d="m 467.34851,137.38253 -150.61217,0 0,83.86855 150.61217,0 0,-83.86855 z"
           style="fill:#47b2ba;fill-opacity:1;fill-rule:evenodd;stroke:none"
           id="path50"
           inkscape:connector-curvature="0" /><g
           id="g52"
           transform="matrix(0.38876988,0,0,0.38876988,233.01708,-4.5305291)"><g
             id="g54" /><g
             id="g60"><g
               clip-path="url(#clipPath56)"
               id="g62"
               style="opacity:0.14999402"><g
                 transform="translate(219.4014,312.7373)"
                 id="g64"><path
                   d="m 0,0 -13.331,0 6.036,13.537 12.893,0 L 0,0 Z"
                   style="fill:#070707;fill-opacity:1;fill-rule:nonzero;stroke:none"
                   id="path66"
                   inkscape:connector-curvature="0" /></g><g
                 transform="translate(229.6895,295.6543)"
                 id="g68"><path
                   d="m 0,0 -31.235,0 6.035,13.537 30.251,0 L 0,0 Z"
                   style="fill:#070707;fill-opacity:1;fill-rule:nonzero;stroke:none"
                   id="path70"
                   inkscape:connector-curvature="0" /></g><g
                 transform="translate(223.4375,276.96)"
                 id="g72"><path
                   d="m 0,0 -32.595,0 6.014,13.537 31.611,0 L 0,0 Z"
                   style="fill:#070707;fill-opacity:1;fill-rule:nonzero;stroke:none"
                   id="path74"
                   inkscape:connector-curvature="0" /></g><g
                 transform="translate(235.3975,312.7373)"
                 id="g76"><path
                   d="m 0,0 -13.331,0 5.511,13.537 12.893,0 L 0,0 Z"
                   style="fill:#070707;fill-opacity:1;fill-rule:nonzero;stroke:none"
                   id="path78"
                   inkscape:connector-curvature="0" /></g><g
                 transform="translate(251.3936,312.7373)"
                 id="g80"><path
                   d="m 0,0 -13.33,0 4.986,13.537 12.892,0 L 0,0 Z"
                   style="fill:#070707;fill-opacity:1;fill-rule:nonzero;stroke:none"
                   id="path82"
                   inkscape:connector-curvature="0" /></g><g
                 transform="translate(267.3896,312.7373)"
                 id="g84"><path
                   d="m 0,0 -13.33,0 4.461,13.537 12.892,0 L 0,0 Z"
                   style="fill:#070707;fill-opacity:1;fill-rule:nonzero;stroke:none"
                   id="path86"
                   inkscape:connector-curvature="0" /></g><g
                 transform="translate(283.3857,312.7373)"
                 id="g88"><path
                   d="m 0,0 -13.33,0 3.936,13.537 12.893,0 L 0,0 Z"
                   style="fill:#070707;fill-opacity:1;fill-rule:nonzero;stroke:none"
                   id="path90"
                   inkscape:connector-curvature="0" /></g><g
                 transform="translate(299.3823,312.7373)"
                 id="g92"><path
                   d="m 0,0 -13.33,0 3.411,13.537 12.892,0 L 0,0 Z"
                   style="fill:#070707;fill-opacity:1;fill-rule:nonzero;stroke:none"
                   id="path94"
                   inkscape:connector-curvature="0" /></g><g
                 transform="translate(315.3784,312.7373)"
                 id="g96"><path
                   d="m 0,0 -13.33,0 2.886,13.537 12.892,0 L 0,0 Z"
                   style="fill:#070707;fill-opacity:1;fill-rule:nonzero;stroke:none"
                   id="path98"
                   inkscape:connector-curvature="0" /></g><g
                 transform="translate(331.3745,312.7373)"
                 id="g100"><path
                   d="m 0,0 -13.33,0 2.361,13.537 12.892,0 L 0,0 Z"
                   style="fill:#070707;fill-opacity:1;fill-rule:nonzero;stroke:none"
                   id="path102"
                   inkscape:connector-curvature="0" /></g><g
                 transform="translate(347.3711,312.7373)"
                 id="g104"><path
                   d="m 0,0 -13.331,0 1.836,13.537 12.893,0 L 0,0 Z"
                   style="fill:#070707;fill-opacity:1;fill-rule:nonzero;stroke:none"
                   id="path106"
                   inkscape:connector-curvature="0" /></g><g
                 transform="translate(363.3672,312.7373)"
                 id="g108"><path
                   d="m 0,0 -13.331,0 1.311,13.537 12.894,0 L 0,0 Z"
                   style="fill:#070707;fill-opacity:1;fill-rule:nonzero;stroke:none"
                   id="path110"
                   inkscape:connector-curvature="0" /></g><g
                 transform="translate(379.3633,312.7373)"
                 id="g112"><path
                   d="m 0,0 -13.33,0 0.786,13.537 12.893,0 L 0,0 Z"
                   style="fill:#070707;fill-opacity:1;fill-rule:nonzero;stroke:none"
                   id="path114"
                   inkscape:connector-curvature="0" /></g><g
                 transform="translate(395.3599,312.7373)"
                 id="g116"><path
                   d="m 0,0 -13.33,0 0.261,13.537 12.892,0 L 0,0 Z"
                   style="fill:#070707;fill-opacity:1;fill-rule:nonzero;stroke:none"
                   id="path118"
                   inkscape:connector-curvature="0" /></g><g
                 transform="translate(411.3555,312.7373)"
                 id="g120"><path
                   d="m 0,0 -13.33,0 -0.264,13.537 12.893,0 L 0,0 Z"
                   style="fill:#070707;fill-opacity:1;fill-rule:nonzero;stroke:none"
                   id="path122"
                   inkscape:connector-curvature="0" /></g><g
                 transform="translate(427.3525,312.7373)"
                 id="g124"><path
                   d="m 0,0 -13.331,0 -0.789,13.537 12.893,0 L 0,0 Z"
                   style="fill:#070707;fill-opacity:1;fill-rule:nonzero;stroke:none"
                   id="path126"
                   inkscape:connector-curvature="0" /></g><g
                 transform="translate(443.3486,312.7373)"
                 id="g128"><path
                   d="m 0,0 -13.33,0 -1.315,13.537 12.893,0 L 0,0 Z"
                   style="fill:#070707;fill-opacity:1;fill-rule:nonzero;stroke:none"
                   id="path130"
                   inkscape:connector-curvature="0" /></g><g
                 transform="translate(459.3447,312.7373)"
                 id="g132"><path
                   d="m 0,0 -13.33,0 -1.839,13.537 12.893,0 L 0,0 Z"
                   style="fill:#070707;fill-opacity:1;fill-rule:nonzero;stroke:none"
                   id="path134"
                   inkscape:connector-curvature="0" /></g><g
                 transform="translate(475.3408,312.7373)"
                 id="g136"><path
                   d="m 0,0 -13.33,0 -2.364,13.537 12.892,0 L 0,0 Z"
                   style="fill:#070707;fill-opacity:1;fill-rule:nonzero;stroke:none"
                   id="path138"
                   inkscape:connector-curvature="0" /></g><g
                 transform="translate(491.3369,312.7373)"
                 id="g140"><path
                   d="m 0,0 -13.33,0 -2.889,13.537 12.893,0 L 0,0 Z"
                   style="fill:#070707;fill-opacity:1;fill-rule:nonzero;stroke:none"
                   id="path142"
                   inkscape:connector-curvature="0" /></g><g
                 transform="translate(507.333,312.7373)"
                 id="g144"><path
                   d="m 0,0 -13.33,0 -3.414,13.537 12.892,0 L 0,0 Z"
                   style="fill:#070707;fill-opacity:1;fill-rule:nonzero;stroke:none"
                   id="path146"
                   inkscape:connector-curvature="0" /></g><g
                 transform="translate(523.3301,312.7373)"
                 id="g148"><path
                   d="m 0,0 -13.33,0 -3.94,13.537 12.893,0 L 0,0 Z"
                   style="fill:#070707;fill-opacity:1;fill-rule:nonzero;stroke:none"
                   id="path150"
                   inkscape:connector-curvature="0" /></g><g
                 transform="translate(539.3262,312.7373)"
                 id="g152"><path
                   d="m 0,0 -13.331,0 -4.464,13.537 12.894,0 L 0,0 Z"
                   style="fill:#070707;fill-opacity:1;fill-rule:nonzero;stroke:none"
                   id="path154"
                   inkscape:connector-curvature="0" /></g><g
                 transform="translate(555.3223,312.7373)"
                 id="g156"><path
                   d="m 0,0 -13.33,0 -4.989,13.537 12.892,0 L 0,0 Z"
                   style="fill:#070707;fill-opacity:1;fill-rule:nonzero;stroke:none"
                   id="path158"
                   inkscape:connector-curvature="0" /></g><g
                 transform="translate(571.3184,312.7373)"
                 id="g160"><path
                   d="m 0,0 -13.33,0 -5.514,13.537 12.893,0 L 0,0 Z"
                   style="fill:#070707;fill-opacity:1;fill-rule:nonzero;stroke:none"
                   id="path162"
                   inkscape:connector-curvature="0" /></g><g
                 transform="translate(587.3145,312.7373)"
                 id="g164"><path
                   d="m 0,0 -13.33,0 -6.039,13.537 12.892,0 L 0,0 Z"
                   style="fill:#070707;fill-opacity:1;fill-rule:nonzero;stroke:none"
                   id="path166"
                   inkscape:connector-curvature="0" /></g><g
                 transform="translate(603.3105,312.7373)"
                 id="g168"><path
                   d="m 0,0 -13.33,0 -6.564,13.537 12.893,0 L 0,0 Z"
                   style="fill:#070707;fill-opacity:1;fill-rule:nonzero;stroke:none"
                   id="path170"
                   inkscape:connector-curvature="0" /></g><g
                 transform="translate(197.4077,259.5547)"
                 id="g172"><path
                   d="m 0,0 -15.049,0 6.035,13.537 14.612,0 L 0,0 Z"
                   style="fill:#070707;fill-opacity:1;fill-rule:nonzero;stroke:none"
                   id="path174"
                   inkscape:connector-curvature="0" /></g><g
                 transform="translate(215.4663,259.5547)"
                 id="g176"><path
                   d="m 0,0 -15.049,0 5.51,13.537 14.612,0 L 0,0 Z"
                   style="fill:#070707;fill-opacity:1;fill-rule:nonzero;stroke:none"
                   id="path178"
                   inkscape:connector-curvature="0" /></g><g
                 transform="translate(233.5249,259.5547)"
                 id="g180"><path
                   d="m 0,0 -15.049,0 4.986,13.537 14.611,0 L 0,0 Z"
                   style="fill:#070707;fill-opacity:1;fill-rule:nonzero;stroke:none"
                   id="path182"
                   inkscape:connector-curvature="0" /></g><g
                 transform="translate(251.5835,259.5547)"
                 id="g184"><path
                   d="m 0,0 -15.049,0 4.461,13.537 14.611,0 L 0,0 Z"
                   style="fill:#070707;fill-opacity:1;fill-rule:nonzero;stroke:none"
                   id="path186"
                   inkscape:connector-curvature="0" /></g><g
                 transform="translate(269.6421,259.5547)"
                 id="g188"><path
                   d="m 0,0 -15.049,0 3.936,13.537 14.612,0 L 0,0 Z"
                   style="fill:#070707;fill-opacity:1;fill-rule:nonzero;stroke:none"
                   id="path190"
                   inkscape:connector-curvature="0" /></g><g
                 transform="translate(287.7012,259.5547)"
                 id="g192"><path
                   d="m 0,0 -15.049,0 3.411,13.537 14.611,0 L 0,0 Z"
                   style="fill:#070707;fill-opacity:1;fill-rule:nonzero;stroke:none"
                   id="path194"
                   inkscape:connector-curvature="0" /></g><g
                 transform="translate(521.7119,259.5547)"
                 id="g196"><path
                   d="m 0,0 -230.249,0 2.864,13.537 223.555,0 L 0,0 Z"
                   style="fill:#070707;fill-opacity:1;fill-rule:nonzero;stroke:none"
                   id="path198"
                   inkscape:connector-curvature="0" /></g><g
                 transform="translate(540.5234,259.5547)"
                 id="g200"><path
                   d="m 0,0 -15.049,0 -3.939,13.537 14.611,0 L 0,0 Z"
                   style="fill:#070707;fill-opacity:1;fill-rule:nonzero;stroke:none"
                   id="path202"
                   inkscape:connector-curvature="0" /></g><g
                 transform="translate(558.582,259.5547)"
                 id="g204"><path
                   d="m 0,0 -15.05,0 -4.464,13.537 14.613,0 L 0,0 Z"
                   style="fill:#070707;fill-opacity:1;fill-rule:nonzero;stroke:none"
                   id="path206"
                   inkscape:connector-curvature="0" /></g><g
                 transform="translate(576.6406,259.5547)"
                 id="g208"><path
                   d="m 0,0 -15.049,0 -4.989,13.537 14.611,0 L 0,0 Z"
                   style="fill:#070707;fill-opacity:1;fill-rule:nonzero;stroke:none"
                   id="path210"
                   inkscape:connector-curvature="0" /></g><g
                 transform="translate(594.7002,259.5547)"
                 id="g212"><path
                   d="m 0,0 -15.049,0 -5.514,13.537 14.611,0 L 0,0 Z"
                   style="fill:#070707;fill-opacity:1;fill-rule:nonzero;stroke:none"
                   id="path214"
                   inkscape:connector-curvature="0" /></g><g
                 transform="translate(612.7578,259.5547)"
                 id="g216"><path
                   d="m 0,0 -15.049,0 -6.039,13.537 14.611,0 L 0,0 Z"
                   style="fill:#070707;fill-opacity:1;fill-rule:nonzero;stroke:none"
                   id="path218"
                   inkscape:connector-curvature="0" /></g><g
                 transform="translate(630.8174,259.5547)"
                 id="g220"><path
                   d="m 0,0 -15.049,0 -6.564,13.537 14.611,0 L 0,0 Z"
                   style="fill:#070707;fill-opacity:1;fill-rule:nonzero;stroke:none"
                   id="path222"
                   inkscape:connector-curvature="0" /></g><g
                 transform="translate(245.6538,295.6543)"
                 id="g224"><path
                   d="m 0,0 -13.882,0 4.986,13.537 13.444,0 L 0,0 Z"
                   style="fill:#070707;fill-opacity:1;fill-rule:nonzero;stroke:none"
                   id="path226"
                   inkscape:connector-curvature="0" /></g><g
                 transform="translate(262.3125,295.6543)"
                 id="g228"><path
                   d="m 0,0 -13.882,0 4.461,13.537 13.444,0 L 0,0 Z"
                   style="fill:#070707;fill-opacity:1;fill-rule:nonzero;stroke:none"
                   id="path230"
                   inkscape:connector-curvature="0" /></g><g
                 transform="translate(278.9712,295.6543)"
                 id="g232"><path
                   d="m 0,0 -13.882,0 3.936,13.537 13.445,0 L 0,0 Z"
                   style="fill:#070707;fill-opacity:1;fill-rule:nonzero;stroke:none"
                   id="path234"
                   inkscape:connector-curvature="0" /></g><g
                 transform="translate(295.6299,295.6543)"
                 id="g236"><path
                   d="m 0,0 -13.882,0 3.411,13.537 13.445,0 L 0,0 Z"
                   style="fill:#070707;fill-opacity:1;fill-rule:nonzero;stroke:none"
                   id="path238"
                   inkscape:connector-curvature="0" /></g><g
                 transform="translate(312.2886,295.6543)"
                 id="g240"><path
                   d="m 0,0 -13.882,0 2.886,13.537 13.444,0 L 0,0 Z"
                   style="fill:#070707;fill-opacity:1;fill-rule:nonzero;stroke:none"
                   id="path242"
                   inkscape:connector-curvature="0" /></g><g
                 transform="translate(328.9473,295.6543)"
                 id="g244"><path
                   d="m 0,0 -13.882,0 2.361,13.537 13.444,0 L 0,0 Z"
                   style="fill:#070707;fill-opacity:1;fill-rule:nonzero;stroke:none"
                   id="path246"
                   inkscape:connector-curvature="0" /></g><g
                 transform="translate(345.6064,295.6543)"
                 id="g248"><path
                   d="m 0,0 -13.883,0 1.836,13.537 13.445,0 L 0,0 Z"
                   style="fill:#070707;fill-opacity:1;fill-rule:nonzero;stroke:none"
                   id="path250"
                   inkscape:connector-curvature="0" /></g><g
                 transform="translate(362.2651,295.6543)"
                 id="g252"><path
                   d="m 0,0 -13.883,0 1.311,13.537 13.446,0 L 0,0 Z"
                   style="fill:#070707;fill-opacity:1;fill-rule:nonzero;stroke:none"
                   id="path254"
                   inkscape:connector-curvature="0" /></g><g
                 transform="translate(378.9238,295.6543)"
                 id="g256"><path
                   d="m 0,0 -13.882,0 0.786,13.537 13.445,0 L 0,0 Z"
                   style="fill:#070707;fill-opacity:1;fill-rule:nonzero;stroke:none"
                   id="path258"
                   inkscape:connector-curvature="0" /></g><g
                 transform="translate(395.5825,295.6543)"
                 id="g260"><path
                   d="m 0,0 -13.882,0 0.261,13.537 13.444,0 L 0,0 Z"
                   style="fill:#070707;fill-opacity:1;fill-rule:nonzero;stroke:none"
                   id="path262"
                   inkscape:connector-curvature="0" /></g><g
                 transform="translate(412.2412,295.6543)"
                 id="g264"><path
                   d="m 0,0 -13.882,0 -0.264,13.537 13.445,0 L 0,0 Z"
                   style="fill:#070707;fill-opacity:1;fill-rule:nonzero;stroke:none"
                   id="path266"
                   inkscape:connector-curvature="0" /></g><g
                 transform="translate(428.9004,295.6543)"
                 id="g268"><path
                   d="m 0,0 -13.883,0 -0.789,13.537 13.445,0 L 0,0 Z"
                   style="fill:#070707;fill-opacity:1;fill-rule:nonzero;stroke:none"
                   id="path270"
                   inkscape:connector-curvature="0" /></g><g
                 transform="translate(445.5586,295.6543)"
                 id="g272"><path
                   d="m 0,0 -13.882,0 -1.314,13.537 13.444,0 L 0,0 Z"
                   style="fill:#070707;fill-opacity:1;fill-rule:nonzero;stroke:none"
                   id="path274"
                   inkscape:connector-curvature="0" /></g><g
                 transform="translate(462.2178,295.6543)"
                 id="g276"><path
                   d="m 0,0 -13.882,0 -1.84,13.537 13.446,0 L 0,0 Z"
                   style="fill:#070707;fill-opacity:1;fill-rule:nonzero;stroke:none"
                   id="path278"
                   inkscape:connector-curvature="0" /></g><g
                 transform="translate(478.876,295.6543)"
                 id="g280"><path
                   d="m 0,0 -13.882,0 -2.364,13.537 13.444,0 L 0,0 Z"
                   style="fill:#070707;fill-opacity:1;fill-rule:nonzero;stroke:none"
                   id="path282"
                   inkscape:connector-curvature="0" /></g><g
                 transform="translate(495.5352,295.6543)"
                 id="g284"><path
                   d="m 0,0 -13.882,0 -2.889,13.537 13.445,0 L 0,0 Z"
                   style="fill:#070707;fill-opacity:1;fill-rule:nonzero;stroke:none"
                   id="path286"
                   inkscape:connector-curvature="0" /></g><g
                 transform="translate(512.1934,295.6543)"
                 id="g288"><path
                   d="m 0,0 -13.882,0 -3.414,13.537 13.444,0 L 0,0 Z"
                   style="fill:#070707;fill-opacity:1;fill-rule:nonzero;stroke:none"
                   id="path290"
                   inkscape:connector-curvature="0" /></g><g
                 transform="translate(528.8525,295.6543)"
                 id="g292"><path
                   d="m 0,0 -13.882,0 -3.939,13.537 13.444,0 L 0,0 Z"
                   style="fill:#070707;fill-opacity:1;fill-rule:nonzero;stroke:none"
                   id="path294"
                   inkscape:connector-curvature="0" /></g><g
                 transform="translate(545.5117,295.6543)"
                 id="g296"><path
                   d="m 0,0 -13.883,0 -4.465,13.537 13.447,0 L 0,0 Z"
                   style="fill:#070707;fill-opacity:1;fill-rule:nonzero;stroke:none"
                   id="path298"
                   inkscape:connector-curvature="0" /></g><g
                 transform="translate(562.1699,295.6543)"
                 id="g300"><path
                   d="m 0,0 -13.882,0 -4.989,13.537 13.444,0 L 0,0 Z"
                   style="fill:#070707;fill-opacity:1;fill-rule:nonzero;stroke:none"
                   id="path302"
                   inkscape:connector-curvature="0" /></g><g
                 transform="translate(578.8291,295.6543)"
                 id="g304"><path
                   d="m 0,0 -13.882,0 -5.514,13.537 13.445,0 L 0,0 Z"
                   style="fill:#070707;fill-opacity:1;fill-rule:nonzero;stroke:none"
                   id="path306"
                   inkscape:connector-curvature="0" /></g><g
                 transform="translate(595.4873,295.6543)"
                 id="g308"><path
                   d="m 0,0 -13.882,0 -6.039,13.537 13.444,0 L 0,0 Z"
                   style="fill:#070707;fill-opacity:1;fill-rule:nonzero;stroke:none"
                   id="path310"
                   inkscape:connector-curvature="0" /></g><g
                 transform="translate(621.3154,277.9268)"
                 id="g312"><path
                   d="m 0,0 -14.455,0 -15.16,31.265 13.444,0 L 0,0 Z"
                   style="fill:#070707;fill-opacity:1;fill-rule:nonzero;stroke:none"
                   id="path314"
                   inkscape:connector-curvature="0" /></g><g
                 transform="translate(239.373,276.96)"
                 id="g316"><path
                   d="m 0,0 -14.486,0 4.986,13.537 14.048,0 L 0,0 Z"
                   style="fill:#070707;fill-opacity:1;fill-rule:nonzero;stroke:none"
                   id="path318"
                   inkscape:connector-curvature="0" /></g><g
                 transform="translate(256.7563,276.96)"
                 id="g320"><path
                   d="m 0,0 -14.486,0 4.461,13.537 14.048,0 L 0,0 Z"
                   style="fill:#070707;fill-opacity:1;fill-rule:nonzero;stroke:none"
                   id="path322"
                   inkscape:connector-curvature="0" /></g><g
                 transform="translate(274.1401,276.96)"
                 id="g324"><path
                   d="m 0,0 -14.486,0 3.936,13.537 14.049,0 L 0,0 Z"
                   style="fill:#070707;fill-opacity:1;fill-rule:nonzero;stroke:none"
                   id="path326"
                   inkscape:connector-curvature="0" /></g><g
                 transform="translate(291.5239,276.96)"
                 id="g328"><path
                   d="m 0,0 -14.486,0 3.41,13.537 14.049,0 L 0,0 Z"
                   style="fill:#070707;fill-opacity:1;fill-rule:nonzero;stroke:none"
                   id="path330"
                   inkscape:connector-curvature="0" /></g><g
                 transform="translate(308.9077,276.96)"
                 id="g332"><path
                   d="m 0,0 -14.486,0 2.885,13.537 14.049,0 L 0,0 Z"
                   style="fill:#070707;fill-opacity:1;fill-rule:nonzero;stroke:none"
                   id="path334"
                   inkscape:connector-curvature="0" /></g><g
                 transform="translate(326.291,276.96)"
                 id="g336"><path
                   d="m 0,0 -14.486,0 2.361,13.537 14.048,0 L 0,0 Z"
                   style="fill:#070707;fill-opacity:1;fill-rule:nonzero;stroke:none"
                   id="path338"
                   inkscape:connector-curvature="0" /></g><g
                 transform="translate(343.6753,276.96)"
                 id="g340"><path
                   d="m 0,0 -14.487,0 1.836,13.537 14.049,0 L 0,0 Z"
                   style="fill:#070707;fill-opacity:1;fill-rule:nonzero;stroke:none"
                   id="path342"
                   inkscape:connector-curvature="0" /></g><g
                 transform="translate(361.0591,276.96)"
                 id="g344"><path
                   d="m 0,0 -14.487,0 1.311,13.537 14.05,0 L 0,0 Z"
                   style="fill:#070707;fill-opacity:1;fill-rule:nonzero;stroke:none"
                   id="path346"
                   inkscape:connector-curvature="0" /></g><g
                 transform="translate(378.4429,276.96)"
                 id="g348"><path
                   d="m 0,0 -14.486,0 0.785,13.537 14.049,0 L 0,0 Z"
                   style="fill:#070707;fill-opacity:1;fill-rule:nonzero;stroke:none"
                   id="path350"
                   inkscape:connector-curvature="0" /></g><g
                 transform="translate(395.8262,276.96)"
                 id="g352"><path
                   d="m 0,0 -14.486,0 0.261,13.537 14.049,0 L 0,0 Z"
                   style="fill:#070707;fill-opacity:1;fill-rule:nonzero;stroke:none"
                   id="path354"
                   inkscape:connector-curvature="0" /></g><g
                 transform="translate(413.21,276.96)"
                 id="g356"><path
                   d="m 0,0 -14.486,0 -0.264,13.537 14.049,0 L 0,0 Z"
                   style="fill:#070707;fill-opacity:1;fill-rule:nonzero;stroke:none"
                   id="path358"
                   inkscape:connector-curvature="0" /></g><g
                 transform="translate(430.5947,276.96)"
                 id="g360"><path
                   d="m 0,0 -14.488,0 -0.789,13.537 14.05,0 L 0,0 Z"
                   style="fill:#070707;fill-opacity:1;fill-rule:nonzero;stroke:none"
                   id="path362"
                   inkscape:connector-curvature="0" /></g><g
                 transform="translate(447.9775,276.96)"
                 id="g364"><path
                   d="m 0,0 -14.486,0 -1.315,13.537 14.049,0 L 0,0 Z"
                   style="fill:#070707;fill-opacity:1;fill-rule:nonzero;stroke:none"
                   id="path366"
                   inkscape:connector-curvature="0" /></g><g
                 transform="translate(465.3613,276.96)"
                 id="g368"><path
                   d="m 0,0 -14.486,0 -1.839,13.537 14.049,0 L 0,0 Z"
                   style="fill:#070707;fill-opacity:1;fill-rule:nonzero;stroke:none"
                   id="path370"
                   inkscape:connector-curvature="0" /></g><g
                 transform="translate(482.7451,276.96)"
                 id="g372"><path
                   d="m 0,0 -14.486,0 -2.365,13.537 14.049,0 L 0,0 Z"
                   style="fill:#070707;fill-opacity:1;fill-rule:nonzero;stroke:none"
                   id="path374"
                   inkscape:connector-curvature="0" /></g><g
                 transform="translate(500.1289,276.96)"
                 id="g376"><path
                   d="m 0,0 -14.486,0 -2.889,13.537 14.049,0 L 0,0 Z"
                   style="fill:#070707;fill-opacity:1;fill-rule:nonzero;stroke:none"
                   id="path378"
                   inkscape:connector-curvature="0" /></g><g
                 transform="translate(517.5117,276.96)"
                 id="g380"><path
                   d="m 0,0 -14.486,0 -3.414,13.537 14.048,0 L 0,0 Z"
                   style="fill:#070707;fill-opacity:1;fill-rule:nonzero;stroke:none"
                   id="path382"
                   inkscape:connector-curvature="0" /></g><g
                 transform="translate(534.8965,276.96)"
                 id="g384"><path
                   d="m 0,0 -14.486,0 -3.94,13.537 14.049,0 L 0,0 Z"
                   style="fill:#070707;fill-opacity:1;fill-rule:nonzero;stroke:none"
                   id="path386"
                   inkscape:connector-curvature="0" /></g><g
                 transform="translate(552.2803,276.96)"
                 id="g388"><path
                   d="m 0,0 -14.487,0 -4.464,13.537 14.05,0 L 0,0 Z"
                   style="fill:#070707;fill-opacity:1;fill-rule:nonzero;stroke:none"
                   id="path390"
                   inkscape:connector-curvature="0" /></g><g
                 transform="translate(569.6641,276.96)"
                 id="g392"><path
                   d="m 0,0 -14.486,0 -4.99,13.537 14.049,0 L 0,0 Z"
                   style="fill:#070707;fill-opacity:1;fill-rule:nonzero;stroke:none"
                   id="path394"
                   inkscape:connector-curvature="0" /></g><g
                 transform="translate(587.0479,276.96)"
                 id="g396"><path
                   d="M 0,0 -14.486,0 -20,13.537 l 14.049,0 L 0,0 Z"
                   style="fill:#070707;fill-opacity:1;fill-rule:nonzero;stroke:none"
                   id="path398"
                   inkscape:connector-curvature="0" /></g><g
                 transform="translate(604.4307,276.96)"
                 id="g400"><path
                   d="m 0,0 -14.486,0 -6.039,13.537 14.048,0 L 0,0 Z"
                   style="fill:#070707;fill-opacity:1;fill-rule:nonzero;stroke:none"
                   id="path402"
                   inkscape:connector-curvature="0" /></g></g></g></g><g
           id="g404"
           transform="matrix(0.38876988,0,0,0.38876988,318.31374,117.44108)"><path
             d="m 0,0 -13.331,0 6.036,13.537 12.893,0 L 0,0 Z"
             style="fill:#727171;fill-opacity:1;fill-rule:nonzero;stroke:none"
             id="path406"
             inkscape:connector-curvature="0" /></g><g
           id="g408"
           transform="matrix(0.38876988,0,0,0.38876988,322.31344,110.79973)"><path
             d="m 0,0 -31.235,0 6.035,13.537 30.251,0 L 0,0 Z"
             style="fill:#727171;fill-opacity:1;fill-rule:nonzero;stroke:none"
             id="path410"
             inkscape:connector-curvature="0" /></g><g
           id="g412"
           transform="matrix(0.38876988,0,0,0.38876988,319.88285,103.53195)"><path
             d="m 0,0 -32.595,0 6.014,13.537 31.611,0 L 0,0 Z"
             style="fill:#727171;fill-opacity:1;fill-rule:nonzero;stroke:none"
             id="path414"
             inkscape:connector-curvature="0" /></g><g
           id="g416"
           transform="matrix(0.38876988,0,0,0.38876988,324.53254,117.44108)"><path
             d="m 0,0 -13.331,0 5.511,13.537 12.893,0 L 0,0 Z"
             style="fill:#727171;fill-opacity:1;fill-rule:nonzero;stroke:none"
             id="path418"
             inkscape:connector-curvature="0" /></g><g
           id="g420"
           transform="matrix(0.38876988,0,0,0.38876988,330.75134,117.44108)"><path
             d="m 0,0 -13.33,0 4.986,13.537 12.892,0 L 0,0 Z"
             style="fill:#727171;fill-opacity:1;fill-rule:nonzero;stroke:none"
             id="path422"
             inkscape:connector-curvature="0" /></g><g
           id="g424"
           transform="matrix(0.38876988,0,0,0.38876988,336.9701,117.44108)"><path
             d="m 0,0 -13.33,0 4.461,13.537 12.892,0 L 0,0 Z"
             style="fill:#727171;fill-opacity:1;fill-rule:nonzero;stroke:none"
             id="path426"
             inkscape:connector-curvature="0" /></g><g
           id="g428"
           transform="matrix(0.38876988,0,0,0.38876988,343.1889,117.44108)"><path
             d="m 0,0 -13.33,0 3.936,13.537 12.893,0 L 0,0 Z"
             style="fill:#727171;fill-opacity:1;fill-rule:nonzero;stroke:none"
             id="path430"
             inkscape:connector-curvature="0" /></g><g
           id="g432"
           transform="matrix(0.38876988,0,0,0.38876988,349.4079,117.44108)"><path
             d="m 0,0 -13.33,0 3.411,13.537 12.892,0 L 0,0 Z"
             style="fill:#727171;fill-opacity:1;fill-rule:nonzero;stroke:none"
             id="path434"
             inkscape:connector-curvature="0" /></g><g
           id="g436"
           transform="matrix(0.38876988,0,0,0.38876988,355.6267,117.44108)"><path
             d="m 0,0 -13.33,0 2.886,13.537 12.892,0 L 0,0 Z"
             style="fill:#727171;fill-opacity:1;fill-rule:nonzero;stroke:none"
             id="path438"
             inkscape:connector-curvature="0" /></g><g
           id="g440"
           transform="matrix(0.38876988,0,0,0.38876988,361.8455,117.44108)"><path
             d="m 0,0 -13.33,0 2.361,13.537 12.892,0 L 0,0 Z"
             style="fill:#727171;fill-opacity:1;fill-rule:nonzero;stroke:none"
             id="path442"
             inkscape:connector-curvature="0" /></g><g
           id="g444"
           transform="matrix(0.38876988,0,0,0.38876988,368.0645,117.44108)"><path
             d="m 0,0 -13.331,0 1.836,13.537 12.893,0 L 0,0 Z"
             style="fill:#727171;fill-opacity:1;fill-rule:nonzero;stroke:none"
             id="path446"
             inkscape:connector-curvature="0" /></g><g
           id="g448"
           transform="matrix(0.38876988,0,0,0.38876988,374.2833,117.44108)"><path
             d="m 0,0 -13.331,0 1.311,13.537 12.894,0 L 0,0 Z"
             style="fill:#727171;fill-opacity:1;fill-rule:nonzero;stroke:none"
             id="path450"
             inkscape:connector-curvature="0" /></g><g
           id="g452"
           transform="matrix(0.38876988,0,0,0.38876988,380.5021,117.44108)"><path
             d="m 0,0 -13.33,0 0.786,13.537 12.893,0 L 0,0 Z"
             style="fill:#727171;fill-opacity:1;fill-rule:nonzero;stroke:none"
             id="path454"
             inkscape:connector-curvature="0" /></g><g
           id="g456"
           transform="matrix(0.38876988,0,0,0.38876988,386.7211,117.44108)"><path
             d="m 0,0 -13.33,0 0.261,13.537 12.892,0 L 0,0 Z"
             style="fill:#727171;fill-opacity:1;fill-rule:nonzero;stroke:none"
             id="path458"
             inkscape:connector-curvature="0" /></g><g
           id="g460"
           transform="matrix(0.38876988,0,0,0.38876988,392.93971,117.44108)"><path
             d="m 0,0 -13.33,0 -0.264,13.537 12.893,0 L 0,0 Z"
             style="fill:#727171;fill-opacity:1;fill-rule:nonzero;stroke:none"
             id="path462"
             inkscape:connector-curvature="0" /></g><g
           id="g464"
           transform="matrix(0.38876988,0,0,0.38876988,399.15886,117.44108)"><path
             d="m 0,0 -13.331,0 -0.789,13.537 12.893,0 L 0,0 Z"
             style="fill:#727171;fill-opacity:1;fill-rule:nonzero;stroke:none"
             id="path466"
             inkscape:connector-curvature="0" /></g><g
           id="g468"
           transform="matrix(0.38876988,0,0,0.38876988,405.37766,117.44108)"><path
             d="m 0,0 -13.33,0 -1.315,13.537 12.893,0 L 0,0 Z"
             style="fill:#727171;fill-opacity:1;fill-rule:nonzero;stroke:none"
             id="path470"
             inkscape:connector-curvature="0" /></g><g
           id="g472"
           transform="matrix(0.38876988,0,0,0.38876988,411.59646,117.44108)"><path
             d="m 0,0 -13.33,0 -1.839,13.537 12.893,0 L 0,0 Z"
             style="fill:#727171;fill-opacity:1;fill-rule:nonzero;stroke:none"
             id="path474"
             inkscape:connector-curvature="0" /></g><g
           id="g476"
           transform="matrix(0.38876988,0,0,0.38876988,417.81527,117.44108)"><path
             d="m 0,0 -13.33,0 -2.364,13.537 12.892,0 L 0,0 Z"
             style="fill:#727171;fill-opacity:1;fill-rule:nonzero;stroke:none"
             id="path478"
             inkscape:connector-curvature="0" /></g><g
           id="g480"
           transform="matrix(0.38876988,0,0,0.38876988,424.03407,117.44108)"><path
             d="m 0,0 -13.33,0 -2.889,13.537 12.893,0 L 0,0 Z"
             style="fill:#727171;fill-opacity:1;fill-rule:nonzero;stroke:none"
             id="path482"
             inkscape:connector-curvature="0" /></g><g
           id="g484"
           transform="matrix(0.38876988,0,0,0.38876988,430.25287,117.44108)"><path
             d="m 0,0 -13.33,0 -3.414,13.537 12.892,0 L 0,0 Z"
             style="fill:#727171;fill-opacity:1;fill-rule:nonzero;stroke:none"
             id="path486"
             inkscape:connector-curvature="0" /></g><g
           id="g488"
           transform="matrix(0.38876988,0,0,0.38876988,436.47206,117.44108)"><path
             d="m 0,0 -13.33,0 -3.94,13.537 12.893,0 L 0,0 Z"
             style="fill:#727171;fill-opacity:1;fill-rule:nonzero;stroke:none"
             id="path490"
             inkscape:connector-curvature="0" /></g><g
           id="g492"
           transform="matrix(0.38876988,0,0,0.38876988,442.69086,117.44108)"><path
             d="m 0,0 -13.331,0 -4.464,13.537 12.894,0 L 0,0 Z"
             style="fill:#727171;fill-opacity:1;fill-rule:nonzero;stroke:none"
             id="path494"
             inkscape:connector-curvature="0" /></g><g
           id="g496"
           transform="matrix(0.38876988,0,0,0.38876988,448.90966,117.44108)"><path
             d="m 0,0 -13.33,0 -4.989,13.537 12.892,0 L 0,0 Z"
             style="fill:#727171;fill-opacity:1;fill-rule:nonzero;stroke:none"
             id="path498"
             inkscape:connector-curvature="0" /></g><g
           id="g500"
           transform="matrix(0.38876988,0,0,0.38876988,455.12847,117.44108)"><path
             d="m 0,0 -13.33,0 -5.514,13.537 12.893,0 L 0,0 Z"
             style="fill:#727171;fill-opacity:1;fill-rule:nonzero;stroke:none"
             id="path502"
             inkscape:connector-curvature="0" /></g><g
           id="g504"
           transform="matrix(0.38876988,0,0,0.38876988,461.34727,117.44108)"><path
             d="m 0,0 -13.33,0 -6.039,13.537 12.892,0 L 0,0 Z"
             style="fill:#727171;fill-opacity:1;fill-rule:nonzero;stroke:none"
             id="path506"
             inkscape:connector-curvature="0" /></g><g
           id="g508"
           transform="matrix(0.38876988,0,0,0.38876988,467.56603,117.44108)"><path
             d="m 0,0 -13.33,0 -6.564,13.537 12.893,0 L 0,0 Z"
             style="fill:#727171;fill-opacity:1;fill-rule:nonzero;stroke:none"
             id="path510"
             inkscape:connector-curvature="0" /></g><g
           id="g512"
           transform="matrix(0.38876988,0,0,0.38876988,309.76325,96.76529)"><path
             d="m 0,0 -15.049,0 6.035,13.537 14.612,0 L 0,0 Z"
             style="fill:#727171;fill-opacity:1;fill-rule:nonzero;stroke:none"
             id="path514"
             inkscape:connector-curvature="0" /></g><g
           id="g516"
           transform="matrix(0.38876988,0,0,0.38876988,316.78389,96.76529)"><path
             d="m 0,0 -15.049,0 5.51,13.537 14.612,0 L 0,0 Z"
             style="fill:#727171;fill-opacity:1;fill-rule:nonzero;stroke:none"
             id="path518"
             inkscape:connector-curvature="0" /></g><g
           id="g520"
           transform="matrix(0.38876988,0,0,0.38876988,323.80453,96.76529)"><path
             d="m 0,0 -15.049,0 4.986,13.537 14.611,0 L 0,0 Z"
             style="fill:#727171;fill-opacity:1;fill-rule:nonzero;stroke:none"
             id="path522"
             inkscape:connector-curvature="0" /></g><g
           id="g524"
           transform="matrix(0.38876988,0,0,0.38876988,330.82517,96.76529)"><path
             d="m 0,0 -15.049,0 4.461,13.537 14.611,0 L 0,0 Z"
             style="fill:#727171;fill-opacity:1;fill-rule:nonzero;stroke:none"
             id="path526"
             inkscape:connector-curvature="0" /></g><g
           id="g528"
           transform="matrix(0.38876988,0,0,0.38876988,337.84581,96.76529)"><path
             d="m 0,0 -15.049,0 3.936,13.537 14.612,0 L 0,0 Z"
             style="fill:#727171;fill-opacity:1;fill-rule:nonzero;stroke:none"
             id="path530"
             inkscape:connector-curvature="0" /></g><g
           id="g532"
           transform="matrix(0.38876988,0,0,0.38876988,344.86664,96.76529)"><path
             d="m 0,0 -15.049,0 3.411,13.537 14.611,0 L 0,0 Z"
             style="fill:#727171;fill-opacity:1;fill-rule:nonzero;stroke:none"
             id="path534"
             inkscape:connector-curvature="0" /></g><g
           id="g536"
           transform="matrix(0.38876988,0,0,0.38876988,435.84295,96.76529)"><path
             d="m 0,0 -230.249,0 2.864,13.537 223.555,0 L 0,0 Z"
             style="fill:#727171;fill-opacity:1;fill-rule:nonzero;stroke:none"
             id="path538"
             inkscape:connector-curvature="0" /></g><g
           id="g540"
           transform="matrix(0.38876988,0,0,0.38876988,443.1563,96.76529)"><path
             d="m 0,0 -15.049,0 -3.939,13.537 14.611,0 L 0,0 Z"
             style="fill:#727171;fill-opacity:1;fill-rule:nonzero;stroke:none"
             id="path542"
             inkscape:connector-curvature="0" /></g><g
           id="g544"
           transform="matrix(0.38876988,0,0,0.38876988,450.17694,96.76529)"><path
             d="m 0,0 -15.05,0 -4.464,13.537 14.613,0 L 0,0 Z"
             style="fill:#727171;fill-opacity:1;fill-rule:nonzero;stroke:none"
             id="path546"
             inkscape:connector-curvature="0" /></g><g
           id="g548"
           transform="matrix(0.38876988,0,0,0.38876988,457.19758,96.76529)"><path
             d="m 0,0 -15.049,0 -4.989,13.537 14.611,0 L 0,0 Z"
             style="fill:#727171;fill-opacity:1;fill-rule:nonzero;stroke:none"
             id="path550"
             inkscape:connector-curvature="0" /></g><g
           id="g552"
           transform="matrix(0.38876988,0,0,0.38876988,464.21861,96.76529)"><path
             d="m 0,0 -15.049,0 -5.514,13.537 14.611,0 L 0,0 Z"
             style="fill:#727171;fill-opacity:1;fill-rule:nonzero;stroke:none"
             id="path554"
             inkscape:connector-curvature="0" /></g><g
           id="g556"
           transform="matrix(0.38876988,0,0,0.38876988,471.23886,96.76529)"><path
             d="m 0,0 -15.049,0 -6.039,13.537 14.611,0 L 0,0 Z"
             style="fill:#727171;fill-opacity:1;fill-rule:nonzero;stroke:none"
             id="path558"
             inkscape:connector-curvature="0" /></g><g
           id="g560"
           transform="matrix(0.38876988,0,0,0.38876988,478.25988,96.76529)"><path
             d="m 0,0 -15.049,0 -6.564,13.537 14.611,0 L 0,0 Z"
             style="fill:#727171;fill-opacity:1;fill-rule:nonzero;stroke:none"
             id="path562"
             inkscape:connector-curvature="0" /></g><g
           id="g564"
           transform="matrix(0.38876988,0,0,0.38876988,328.51988,110.79973)"><path
             d="m 0,0 -13.882,0 4.986,13.537 13.444,0 L 0,0 Z"
             style="fill:#727171;fill-opacity:1;fill-rule:nonzero;stroke:none"
             id="path566"
             inkscape:connector-curvature="0" /></g><g
           id="g568"
           transform="matrix(0.38876988,0,0,0.38876988,334.99628,110.79973)"><path
             d="m 0,0 -13.882,0 4.461,13.537 13.444,0 L 0,0 Z"
             style="fill:#727171;fill-opacity:1;fill-rule:nonzero;stroke:none"
             id="path570"
             inkscape:connector-curvature="0" /></g><g
           id="g572"
           transform="matrix(0.38876988,0,0,0.38876988,341.47268,110.79973)"><path
             d="m 0,0 -13.882,0 3.936,13.537 13.445,0 L 0,0 Z"
             style="fill:#727171;fill-opacity:1;fill-rule:nonzero;stroke:none"
             id="path574"
             inkscape:connector-curvature="0" /></g><g
           id="g576"
           transform="matrix(0.38876988,0,0,0.38876988,347.94908,110.79973)"><path
             d="m 0,0 -13.882,0 3.411,13.537 13.445,0 L 0,0 Z"
             style="fill:#727171;fill-opacity:1;fill-rule:nonzero;stroke:none"
             id="path578"
             inkscape:connector-curvature="0" /></g><g
           id="g580"
           transform="matrix(0.38876988,0,0,0.38876988,354.42548,110.79973)"><path
             d="m 0,0 -13.882,0 2.886,13.537 13.444,0 L 0,0 Z"
             style="fill:#727171;fill-opacity:1;fill-rule:nonzero;stroke:none"
             id="path582"
             inkscape:connector-curvature="0" /></g><g
           id="g584"
           transform="matrix(0.38876988,0,0,0.38876988,360.90188,110.79973)"><path
             d="m 0,0 -13.882,0 2.361,13.537 13.444,0 L 0,0 Z"
             style="fill:#727171;fill-opacity:1;fill-rule:nonzero;stroke:none"
             id="path586"
             inkscape:connector-curvature="0" /></g><g
           id="g588"
           transform="matrix(0.38876988,0,0,0.38876988,367.37844,110.79973)"><path
             d="m 0,0 -13.883,0 1.836,13.537 13.445,0 L 0,0 Z"
             style="fill:#727171;fill-opacity:1;fill-rule:nonzero;stroke:none"
             id="path590"
             inkscape:connector-curvature="0" /></g><g
           id="g592"
           transform="matrix(0.38876988,0,0,0.38876988,373.85484,110.79973)"><path
             d="m 0,0 -13.883,0 1.311,13.537 13.446,0 L 0,0 Z"
             style="fill:#727171;fill-opacity:1;fill-rule:nonzero;stroke:none"
             id="path594"
             inkscape:connector-curvature="0" /></g><g
           id="g596"
           transform="matrix(0.38876988,0,0,0.38876988,380.33124,110.79973)"><path
             d="m 0,0 -13.882,0 0.786,13.537 13.445,0 L 0,0 Z"
             style="fill:#727171;fill-opacity:1;fill-rule:nonzero;stroke:none"
             id="path598"
             inkscape:connector-curvature="0" /></g><g
           id="g600"
           transform="matrix(0.38876988,0,0,0.38876988,386.80764,110.79973)"><path
             d="m 0,0 -13.882,0 0.261,13.537 13.444,0 L 0,0 Z"
             style="fill:#727171;fill-opacity:1;fill-rule:nonzero;stroke:none"
             id="path602"
             inkscape:connector-curvature="0" /></g><g
           id="g604"
           transform="matrix(0.38876988,0,0,0.38876988,393.28404,110.79973)"><path
             d="m 0,0 -13.882,0 -0.264,13.537 13.445,0 L 0,0 Z"
             style="fill:#727171;fill-opacity:1;fill-rule:nonzero;stroke:none"
             id="path606"
             inkscape:connector-curvature="0" /></g><g
           id="g608"
           transform="matrix(0.38876988,0,0,0.38876988,399.76064,110.79973)"><path
             d="m 0,0 -13.883,0 -0.789,13.537 13.445,0 L 0,0 Z"
             style="fill:#727171;fill-opacity:1;fill-rule:nonzero;stroke:none"
             id="path610"
             inkscape:connector-curvature="0" /></g><g
           id="g612"
           transform="matrix(0.38876988,0,0,0.38876988,406.23684,110.79973)"><path
             d="m 0,0 -13.882,0 -1.314,13.537 13.444,0 L 0,0 Z"
             style="fill:#727171;fill-opacity:1;fill-rule:nonzero;stroke:none"
             id="path614"
             inkscape:connector-curvature="0" /></g><g
           id="g616"
           transform="matrix(0.38876988,0,0,0.38876988,412.71344,110.79973)"><path
             d="m 0,0 -13.882,0 -1.84,13.537 13.446,0 L 0,0 Z"
             style="fill:#727171;fill-opacity:1;fill-rule:nonzero;stroke:none"
             id="path618"
             inkscape:connector-curvature="0" /></g><g
           id="g620"
           transform="matrix(0.38876988,0,0,0.38876988,419.18965,110.79973)"><path
             d="m 0,0 -13.882,0 -2.364,13.537 13.444,0 L 0,0 Z"
             style="fill:#727171;fill-opacity:1;fill-rule:nonzero;stroke:none"
             id="path622"
             inkscape:connector-curvature="0" /></g><g
           id="g624"
           transform="matrix(0.38876988,0,0,0.38876988,425.66624,110.79973)"><path
             d="m 0,0 -13.882,0 -2.889,13.537 13.445,0 L 0,0 Z"
             style="fill:#727171;fill-opacity:1;fill-rule:nonzero;stroke:none"
             id="path626"
             inkscape:connector-curvature="0" /></g><g
           id="g628"
           transform="matrix(0.38876988,0,0,0.38876988,432.14245,110.79973)"><path
             d="m 0,0 -13.882,0 -3.414,13.537 13.444,0 L 0,0 Z"
             style="fill:#727171;fill-opacity:1;fill-rule:nonzero;stroke:none"
             id="path630"
             inkscape:connector-curvature="0" /></g><g
           id="g632"
           transform="matrix(0.38876988,0,0,0.38876988,438.619,110.79973)"><path
             d="m 0,0 -13.882,0 -3.939,13.537 13.444,0 L 0,0 Z"
             style="fill:#727171;fill-opacity:1;fill-rule:nonzero;stroke:none"
             id="path634"
             inkscape:connector-curvature="0" /></g><g
           id="g636"
           transform="matrix(0.38876988,0,0,0.38876988,445.0956,110.79973)"><path
             d="m 0,0 -13.883,0 -4.465,13.537 13.447,0 L 0,0 Z"
             style="fill:#727171;fill-opacity:1;fill-rule:nonzero;stroke:none"
             id="path638"
             inkscape:connector-curvature="0" /></g><g
           id="g640"
           transform="matrix(0.38876988,0,0,0.38876988,451.5718,110.79973)"><path
             d="m 0,0 -13.882,0 -4.989,13.537 13.444,0 L 0,0 Z"
             style="fill:#727171;fill-opacity:1;fill-rule:nonzero;stroke:none"
             id="path642"
             inkscape:connector-curvature="0" /></g><g
           id="g644"
           transform="matrix(0.38876988,0,0,0.38876988,458.0484,110.79973)"><path
             d="m 0,0 -13.882,0 -5.514,13.537 13.445,0 L 0,0 Z"
             style="fill:#727171;fill-opacity:1;fill-rule:nonzero;stroke:none"
             id="path646"
             inkscape:connector-curvature="0" /></g><g
           id="g648"
           transform="matrix(0.38876988,0,0,0.38876988,464.52461,110.79973)"><path
             d="m 0,0 -13.882,0 -6.039,13.537 13.444,0 L 0,0 Z"
             style="fill:#727171;fill-opacity:1;fill-rule:nonzero;stroke:none"
             id="path650"
             inkscape:connector-curvature="0" /></g><g
           id="g652"
           transform="matrix(0.38876988,0,0,0.38876988,474.56579,103.90781)"><path
             d="m 0,0 -14.455,0 -15.16,31.265 13.444,0 L 0,0 Z"
             style="fill:#727171;fill-opacity:1;fill-rule:nonzero;stroke:none"
             id="path654"
             inkscape:connector-curvature="0" /></g><g
           id="g656"
           transform="matrix(0.38876988,0,0,0.38876988,326.07809,103.53195)"><path
             d="m 0,0 -14.486,0 4.986,13.537 14.048,0 L 0,0 Z"
             style="fill:#727171;fill-opacity:1;fill-rule:nonzero;stroke:none"
             id="path658"
             inkscape:connector-curvature="0" /></g><g
           id="g660"
           transform="matrix(0.38876988,0,0,0.38876988,332.8362,103.53195)"><path
             d="m 0,0 -14.486,0 4.461,13.537 14.048,0 L 0,0 Z"
             style="fill:#727171;fill-opacity:1;fill-rule:nonzero;stroke:none"
             id="path662"
             inkscape:connector-curvature="0" /></g><g
           id="g664"
           transform="matrix(0.38876988,0,0,0.38876988,339.59449,103.53195)"><path
             d="m 0,0 -14.486,0 3.936,13.537 14.049,0 L 0,0 Z"
             style="fill:#727171;fill-opacity:1;fill-rule:nonzero;stroke:none"
             id="path666"
             inkscape:connector-curvature="0" /></g><g
           id="g668"
           transform="matrix(0.38876988,0,0,0.38876988,346.35279,103.53195)"><path
             d="m 0,0 -14.486,0 3.41,13.537 14.049,0 L 0,0 Z"
             style="fill:#727171;fill-opacity:1;fill-rule:nonzero;stroke:none"
             id="path670"
             inkscape:connector-curvature="0" /></g><g
           id="g672"
           transform="matrix(0.38876988,0,0,0.38876988,353.11109,103.53195)"><path
             d="m 0,0 -14.486,0 2.885,13.537 14.049,0 L 0,0 Z"
             style="fill:#727171;fill-opacity:1;fill-rule:nonzero;stroke:none"
             id="path674"
             inkscape:connector-curvature="0" /></g><g
           id="g676"
           transform="matrix(0.38876988,0,0,0.38876988,359.86919,103.53195)"><path
             d="m 0,0 -14.486,0 2.361,13.537 14.048,0 L 0,0 Z"
             style="fill:#727171;fill-opacity:1;fill-rule:nonzero;stroke:none"
             id="path678"
             inkscape:connector-curvature="0" /></g><g
           id="g680"
           transform="matrix(0.38876988,0,0,0.38876988,366.62769,103.53195)"><path
             d="m 0,0 -14.487,0 1.836,13.537 14.049,0 L 0,0 Z"
             style="fill:#727171;fill-opacity:1;fill-rule:nonzero;stroke:none"
             id="path682"
             inkscape:connector-curvature="0" /></g><g
           id="g684"
           transform="matrix(0.38876988,0,0,0.38876988,373.38598,103.53195)"><path
             d="m 0,0 -14.487,0 1.311,13.537 14.05,0 L 0,0 Z"
             style="fill:#727171;fill-opacity:1;fill-rule:nonzero;stroke:none"
             id="path686"
             inkscape:connector-curvature="0" /></g><g
           id="g688"
           transform="matrix(0.38876988,0,0,0.38876988,380.14428,103.53195)"><path
             d="m 0,0 -14.486,0 0.785,13.537 14.049,0 L 0,0 Z"
             style="fill:#727171;fill-opacity:1;fill-rule:nonzero;stroke:none"
             id="path690"
             inkscape:connector-curvature="0" /></g><g
           id="g692"
           transform="matrix(0.38876988,0,0,0.38876988,386.90238,103.53195)"><path
             d="m 0,0 -14.486,0 0.261,13.537 14.049,0 L 0,0 Z"
             style="fill:#727171;fill-opacity:1;fill-rule:nonzero;stroke:none"
             id="path694"
             inkscape:connector-curvature="0" /></g><g
           id="g696"
           transform="matrix(0.38876988,0,0,0.38876988,393.66068,103.53195)"><path
             d="m 0,0 -14.486,0 -0.264,13.537 14.049,0 L 0,0 Z"
             style="fill:#727171;fill-opacity:1;fill-rule:nonzero;stroke:none"
             id="path698"
             inkscape:connector-curvature="0" /></g><g
           id="g700"
           transform="matrix(0.38876988,0,0,0.38876988,400.41933,103.53195)"><path
             d="m 0,0 -14.488,0 -0.789,13.537 14.05,0 L 0,0 Z"
             style="fill:#727171;fill-opacity:1;fill-rule:nonzero;stroke:none"
             id="path702"
             inkscape:connector-curvature="0" /></g><g
           id="g704"
           transform="matrix(0.38876988,0,0,0.38876988,407.17724,103.53195)"><path
             d="m 0,0 -14.486,0 -1.315,13.537 14.049,0 L 0,0 Z"
             style="fill:#727171;fill-opacity:1;fill-rule:nonzero;stroke:none"
             id="path706"
             inkscape:connector-curvature="0" /></g><g
           id="g708"
           transform="matrix(0.38876988,0,0,0.38876988,413.93554,103.53195)"><path
             d="m 0,0 -14.486,0 -1.839,13.537 14.049,0 L 0,0 Z"
             style="fill:#727171;fill-opacity:1;fill-rule:nonzero;stroke:none"
             id="path710"
             inkscape:connector-curvature="0" /></g><g
           id="g712"
           transform="matrix(0.38876988,0,0,0.38876988,420.69383,103.53195)"><path
             d="m 0,0 -14.486,0 -2.365,13.537 14.049,0 L 0,0 Z"
             style="fill:#727171;fill-opacity:1;fill-rule:nonzero;stroke:none"
             id="path714"
             inkscape:connector-curvature="0" /></g><g
           id="g716"
           transform="matrix(0.38876988,0,0,0.38876988,427.45213,103.53195)"><path
             d="m 0,0 -14.486,0 -2.889,13.537 14.049,0 L 0,0 Z"
             style="fill:#727171;fill-opacity:1;fill-rule:nonzero;stroke:none"
             id="path718"
             inkscape:connector-curvature="0" /></g><g
           id="g720"
           transform="matrix(0.38876988,0,0,0.38876988,434.21004,103.53195)"><path
             d="m 0,0 -14.486,0 -3.414,13.537 14.048,0 L 0,0 Z"
             style="fill:#727171;fill-opacity:1;fill-rule:nonzero;stroke:none"
             id="path722"
             inkscape:connector-curvature="0" /></g><g
           id="g724"
           transform="matrix(0.38876988,0,0,0.38876988,440.96873,103.53195)"><path
             d="m 0,0 -14.486,0 -3.94,13.537 14.049,0 L 0,0 Z"
             style="fill:#727171;fill-opacity:1;fill-rule:nonzero;stroke:none"
             id="path726"
             inkscape:connector-curvature="0" /></g><g
           id="g728"
           transform="matrix(0.38876988,0,0,0.38876988,447.72703,103.53195)"><path
             d="m 0,0 -14.487,0 -4.464,13.537 14.05,0 L 0,0 Z"
             style="fill:#727171;fill-opacity:1;fill-rule:nonzero;stroke:none"
             id="path730"
             inkscape:connector-curvature="0" /></g><g
           id="g732"
           transform="matrix(0.38876988,0,0,0.38876988,454.48532,103.53195)"><path
             d="m 0,0 -14.486,0 -4.99,13.537 14.049,0 L 0,0 Z"
             style="fill:#727171;fill-opacity:1;fill-rule:nonzero;stroke:none"
             id="path734"
             inkscape:connector-curvature="0" /></g><g
           id="g736"
           transform="matrix(0.38876988,0,0,0.38876988,461.24362,103.53195)"><path
             d="M 0,0 -14.486,0 -20,13.537 l 14.049,0 L 0,0 Z"
             style="fill:#727171;fill-opacity:1;fill-rule:nonzero;stroke:none"
             id="path738"
             inkscape:connector-curvature="0" /></g><g
           id="g740"
           transform="matrix(0.38876988,0,0,0.38876988,468.00153,103.53195)"><path
             d="m 0,0 -14.486,0 -6.039,13.537 14.048,0 L 0,0 Z"
             style="fill:#727171;fill-opacity:1;fill-rule:nonzero;stroke:none"
             id="path742"
             inkscape:connector-curvature="0" /></g><g
           id="g744"
           transform="matrix(0.38876988,0,0,0.38876988,421.67221,208.98861)"><path
             d="m 0,0 c 0,0 0.239,-0.156 0.703,-0.46 0.462,-0.307 1.157,-0.736 2.031,-1.387 1.752,-1.28 4.322,-3.176 7.253,-6.028 1.463,-1.424 3.047,-3.053 4.669,-4.934 1.631,-1.874 3.229,-4.043 4.844,-6.437 1.604,-2.4 3.182,-5.056 4.664,-7.965 1.473,-2.914 2.76,-6.11 3.926,-9.514 1.161,-3.407 2.141,-7.044 2.887,-10.871 0.734,-3.83 1.146,-7.853 1.338,-12.001 0.17,-4.148 0.081,-8.429 -0.332,-12.78 -0.394,-4.355 -1.239,-8.751 -2.31,-13.162 -2.218,-8.794 -5.555,-17.674 -10.342,-25.912 -2.373,-4.124 -4.986,-8.153 -7.872,-11.993 -2.892,-3.848 -5.934,-7.554 -9.338,-11.019 -6.905,-7.025 -14.807,-12.824 -23.08,-17.51 -8.283,-4.695 -17.06,-7.99 -25.706,-10.392 -8.659,-2.412 -17.337,-3.531 -25.595,-3.689 -8.259,-0.207 -16.158,0.847 -23.19,3.033 -3.504,1.126 -6.83,2.449 -9.758,4.237 -2.929,1.771 -5.536,3.804 -7.613,6.106 -2.079,2.289 -3.679,4.761 -4.682,7.222 -1.026,2.453 -1.535,4.829 -1.747,6.949 -0.211,2.123 -0.175,4.008 0.052,5.609 0.074,0.804 0.214,1.534 0.338,2.2 0.107,0.668 0.258,1.262 0.392,1.792 0.241,1.066 0.51,1.856 0.673,2.391 0.166,0.534 0.251,0.809 0.251,0.809 l 0.781,-0.174 c 0,0 -0.052,-0.276 -0.154,-0.81 -0.1,-0.535 -0.273,-1.324 -0.389,-2.37 -0.253,-2.072 -0.547,-5.196 0.184,-9.04 0.364,-1.913 1.01,-3.995 2.099,-6.073 1.083,-2.079 2.611,-4.142 4.576,-6.016 3.94,-3.761 9.632,-6.581 16.167,-8.195 6.547,-1.624 13.935,-2.155 21.668,-1.671 7.739,0.464 15.839,1.959 23.941,4.393 8.097,2.454 16.203,5.878 23.883,10.334 7.671,4.453 14.94,9.927 21.178,16.412 6.274,6.469 11.784,13.69 16.28,21.341 4.484,7.659 7.92,15.766 10.185,23.91 2.273,8.143 3.344,16.317 3.365,24.063 0.01,7.749 -1.026,15.068 -2.818,21.588 -1.764,6.532 -4.259,12.26 -6.949,17.048 -2.685,4.8 -5.569,8.658 -8.133,11.656 -2.574,2.993 -4.822,5.148 -6.385,6.563 -0.773,0.715 -1.402,1.239 -1.819,1.596 -0.418,0.357 -0.634,0.542 -0.634,0.542 L 0,0 Z"
             style="fill:#eeeeee;fill-opacity:1;fill-rule:nonzero;stroke:none"
             id="path746"
             inkscape:connector-curvature="0" /></g><g
           id="g748"
           transform="matrix(0.38876988,0,0,0.38876988,406.38757,232.54962)"><path
             d="M 0,0 38.647,-1.37 42,-7.82 15.146,-23.026"
             style="fill:#e8563d;fill-opacity:1;fill-rule:evenodd;stroke:none"
             id="path750"
             inkscape:connector-curvature="0" /></g><g
           id="g752"
           transform="matrix(0.38876988,0,0,0.38876988,397.67061,224.78787)"><path
             d="m 0,0 -3.104,-38.548 6.021,-4.075 18.206,24.918"
             style="fill:#e8563d;fill-opacity:1;fill-rule:evenodd;stroke:none"
             id="path754"
             inkscape:connector-curvature="0" /></g><g
           id="g756"
           transform="matrix(0.38876988,0,0,0.38876988,389.77602,248.85424)"><path
             d="m 0,0 -8.37,-7.377 -8.372,-7.378 c 0,0 -1.283,-12.662 17.835,-34.36 19.118,-21.696 43.595,-37.762 43.595,-37.762 l 9.567,8.43 9.566,8.43 c 0,0 -12.858,26.304 -31.975,48.001 C 12.727,-0.32 0,0 0,0"
             style="fill:#bca79f;fill-opacity:1;fill-rule:nonzero;stroke:none"
             id="path758"
             inkscape:connector-curvature="0" /></g><g
           id="g760"
           transform="matrix(0.38876988,0,0,0.38876988,395.6125,235.69376)"><path
             d="M 0,0 C 3.504,3.087 3.844,8.451 0.754,11.959 -2.334,15.465 -7.7,15.801 -11.205,12.715 -14.708,9.626 -15.049,4.26 -11.961,0.755 -8.869,-2.752 -3.505,-3.089 0,0"
             style="fill:#a9d7d8;fill-opacity:1;fill-rule:nonzero;stroke:none"
             id="path762"
             inkscape:connector-curvature="0" /></g><g
           id="g764"
           transform="matrix(0.38876988,0,0,0.38876988,391.59383,240.25423)"><path
             d="M 0,0 C 2.962,2.609 7.497,2.324 10.106,-0.639 12.717,-3.603 12.432,-8.137 9.47,-10.746 6.507,-13.357 1.974,-13.072 -0.64,-10.107 -3.249,-7.146 -2.962,-2.611 0,0 m 11.574,-13.135 c 4.286,3.778 4.698,10.313 0.921,14.601 -3.776,4.285 -10.312,4.7 -14.599,0.922 -4.288,-3.778 -4.7,-10.313 -0.921,-14.598 3.777,-4.289 10.313,-4.701 14.599,-0.925"
             style="fill:#997973;fill-opacity:1;fill-rule:nonzero;stroke:none"
             id="path766"
             inkscape:connector-curvature="0" /></g><g
           id="g768"
           transform="matrix(0.38876988,0,0,0.38876988,401.094,229.55089)"><path
             d="M 0,0 C 1.692,1.491 1.855,4.081 0.365,5.775 -1.127,7.468 -3.718,7.631 -5.41,6.14 -7.102,4.649 -7.267,2.057 -5.774,0.365 -4.283,-1.329 -1.692,-1.491 0,0"
             style="fill:#a9d7d8;fill-opacity:1;fill-rule:nonzero;stroke:none"
             id="path770"
             inkscape:connector-curvature="0" /></g><g
           id="g772"
           transform="matrix(0.38876988,0,0,0.38876988,399.15357,231.75311)"><path
             d="M 0,0 C 1.43,1.259 3.62,1.123 4.881,-0.308 6.141,-1.74 6.003,-3.929 4.572,-5.188 3.143,-6.449 0.954,-6.312 -0.309,-4.88 -1.569,-3.451 -1.43,-1.26 0,0 m 5.589,-6.342 c 2.069,1.823 2.268,4.98 0.444,7.05 -1.823,2.069 -4.979,2.27 -7.05,0.445 -2.069,-1.824 -2.269,-4.98 -0.445,-7.049 1.825,-2.07 4.982,-2.27 7.051,-0.446"
             style="fill:#997973;fill-opacity:1;fill-rule:nonzero;stroke:none"
             id="path774"
             inkscape:connector-curvature="0" /></g><g
           id="g776"
           transform="matrix(0.38876988,0,0,0.38876988,405.92629,224.12424)"><path
             d="M 0,0 C 1.692,1.49 1.856,4.08 0.364,5.774 -1.126,7.468 -3.718,7.631 -5.41,6.139 -7.103,4.648 -7.267,2.057 -5.775,0.365 -4.282,-1.329 -1.691,-1.492 0,0"
             style="fill:#a9d7d8;fill-opacity:1;fill-rule:nonzero;stroke:none"
             id="path778"
             inkscape:connector-curvature="0" /></g><g
           id="g780"
           transform="matrix(0.38876988,0,0,0.38876988,403.98587,226.32647)"><path
             d="M 0,0 C 1.431,1.259 3.621,1.122 4.881,-0.309 6.141,-1.741 6.004,-3.929 4.573,-5.189 3.142,-6.45 0.953,-6.312 -0.309,-4.881 -1.569,-3.451 -1.43,-1.261 0,0 m 5.589,-6.343 c 2.07,1.824 2.269,4.98 0.445,7.051 -1.824,2.069 -4.98,2.269 -7.051,0.445 -2.069,-1.824 -2.268,-4.981 -0.444,-7.05 1.824,-2.07 4.981,-2.269 7.05,-0.446"
             style="fill:#997973;fill-opacity:1;fill-rule:nonzero;stroke:none"
             id="path782"
             inkscape:connector-curvature="0" /></g><g
           id="g784"
           transform="matrix(0.38876988,0,0,0.38876988,408.62681,215.52461)"><path
             d="m 0,0 15.121,12.436 c 0,0 9.841,-6.529 14.361,-19.095 0,0 -2.429,0.761 -5.626,1.48 0,0 3.106,-4.186 3.348,-11.158 0,0 -13.465,-4.873 -27.204,16.337"
             style="fill:#f7ac3b;fill-opacity:1;fill-rule:evenodd;stroke:none"
             id="path786"
             inkscape:connector-curvature="0" /></g><g
           id="g788"
           transform="matrix(0.38876988,0,0,0.38876988,409.2016,216.00451)"><path
             d="m 0,0 11.88,9.771 c 0,0 7.653,-4.099 11.207,-13.972 0,0 -2.602,0.49 -4.571,1.348 0,0 2.667,-4.504 2.858,-9.982 0,0 -10.579,-3.831 -21.374,12.835"
             style="fill:#f2d970;fill-opacity:1;fill-rule:evenodd;stroke:none"
             id="path790"
             inkscape:connector-curvature="0" /></g><g
           id="g792"
           transform="matrix(0.38876988,0,0,0.38876988,415.45458,222.01905)"><path
             d="m 0,0 c 0.546,-0.615 0.492,-1.557 -0.123,-2.104 l -20.772,-18.497 c -0.615,-0.548 -1.557,-0.493 -2.104,0.122 -0.547,0.614 -0.493,1.556 0.122,2.104 L -2.104,0.122 C -1.49,0.669 -0.548,0.614 0,0"
             style="fill:#d33b26;fill-opacity:1;fill-rule:nonzero;stroke:none"
             id="path794"
             inkscape:connector-curvature="0" /></g><g
           id="g796"
           transform="matrix(0.38876988,0,0,0.38876988,382.92126,242.18249)"><path
             d="M 0,0 -7.614,28.952 20.149,17.756 0,0 Z"
             style="fill:#e8563d;fill-opacity:1;fill-rule:nonzero;stroke:none"
             id="path798"
             inkscape:connector-curvature="0" /></g><g
           id="g800"
           transform="matrix(0.38876988,0,0,0.38876988,391.34894,249.03988)"><path
             d="m 0,0 c 0.401,-0.456 0.355,-1.15 -0.098,-1.551 l -20.105,-17.716 c -0.454,-0.4 -1.149,-0.358 -1.55,0.098 -0.401,0.455 -0.357,1.15 0.098,1.551 L -1.551,0.097 C -1.097,0.496 -0.4,0.454 0,0"
             style="fill:#d33b26;fill-opacity:1;fill-rule:nonzero;stroke:none"
             id="path802"
             inkscape:connector-curvature="0" /></g><g
           id="g804"
           transform="matrix(0.38876988,0,0,0.38876988,403.92852,160.32516)"><path
             d="m 0,0 -2.214,0.75 -1.383,-1.883 -0.458,2.291 -2.321,0.257 1.755,1.541 -0.94,2.14 2.214,-0.75 1.382,1.883 L -1.506,3.938 0.815,3.68 -0.941,2.14 0,0 Z"
             style="fill:#f7d581;fill-opacity:1;fill-rule:evenodd;stroke:none"
             id="path806"
             inkscape:connector-curvature="0" /></g><g
           id="g808"
           transform="matrix(0.38876988,0,0,0.38876988,394.14245,157.97147)"><path
             d="m 0,0 -3.08,1.044 -1.923,-2.62 -0.638,3.188 -3.232,0.357 2.443,2.144 -1.306,2.979 3.079,-1.044 1.924,2.62 L -2.095,5.479 1.136,5.121 -1.309,2.978 0,0 Z"
             style="fill:#f7d581;fill-opacity:1;fill-rule:evenodd;stroke:none"
             id="path810"
             inkscape:connector-curvature="0" /></g><g
           id="g812"
           transform="matrix(0.38876988,0,0,0.38876988,397.14554,168.40069)"><path
             d="m 0,0 -1.523,0.516 -0.951,-1.297 -0.317,1.577 -1.6,0.177 1.212,1.062 -0.65,1.473 1.526,-0.516 0.95,1.296 L -1.036,2.71 0.562,2.533 -0.646,1.473 0,0 Z"
             style="fill:#f7d581;fill-opacity:1;fill-rule:evenodd;stroke:none"
             id="path814"
             inkscape:connector-curvature="0" /></g><g
           id="g816"
           transform="matrix(0.38876988,0,0,0.38876988,418.5537,201.86281)"><path
             d="m 0,0 -0.581,-2.264 1.982,-1.236 -2.25,-0.63 -0.08,-2.335 -1.669,1.634 -2.063,-1.099 0.581,2.264 -1.982,1.236 2.249,0.631 0.082,2.334 1.668,-1.636 L 0,0 Z"
             style="fill:#f7d581;fill-opacity:1;fill-rule:evenodd;stroke:none"
             id="path818"
             inkscape:connector-curvature="0" /></g><g
           id="g820"
           transform="matrix(0.38876988,0,0,0.38876988,421.64072,192.2829)"><path
             d="m 0,0 -0.809,-3.15 2.759,-1.72 -3.131,-0.877 -0.112,-3.25 -2.322,2.274 -2.871,-1.528 0.807,3.149 -2.758,1.721 3.131,0.878 0.114,3.248 L -2.87,-1.53 0,0 Z"
             style="fill:#f7d581;fill-opacity:1;fill-rule:evenodd;stroke:none"
             id="path822"
             inkscape:connector-curvature="0" /></g><g
           id="g824"
           transform="matrix(0.38876988,0,0,0.38876988,411.01409,194.48851)"><path
             d="m 0,0 -0.399,-1.558 1.365,-0.849 -1.549,-0.436 -0.055,-1.609 -1.15,1.129 -1.42,-0.76 0.399,1.561 -1.364,0.849 1.549,0.435 L -2.568,0.37 -1.42,-0.755 0,0 Z"
             style="fill:#f7d581;fill-opacity:1;fill-rule:evenodd;stroke:none"
             id="path826"
             inkscape:connector-curvature="0" /></g><g
           id="g828"
           transform="matrix(0.38876988,0,0,0.38876988,375.12802,193.08528)"><path
             d="M 0,0 -1.893,1.371 -3.77,-0.021 -3.53,2.304 -5.673,3.236 -3.54,4.189 -3.805,6.512 -1.912,5.141 -0.035,6.53 -0.274,4.206 1.868,3.273 -0.265,2.322 0,0 Z"
             style="fill:#f7d581;fill-opacity:1;fill-rule:evenodd;stroke:none"
             id="path830"
             inkscape:connector-curvature="0" /></g><g
           id="g832"
           transform="matrix(0.38876988,0,0,0.38876988,365.08341,193.73072)"><path
             d="m 0,0 -2.632,1.906 -2.614,-1.933 0.335,3.233 -2.982,1.297 2.97,1.325 -0.37,3.233 2.635,-1.908 2.612,1.934 L -0.38,5.853 2.602,4.555 -0.368,3.23 0,0 Z"
             style="fill:#f7d581;fill-opacity:1;fill-rule:evenodd;stroke:none"
             id="path834"
             inkscape:connector-curvature="0" /></g><g
           id="g836"
           transform="matrix(0.38876988,0,0,0.38876988,371.03665,202.80492)"><path
             d="m 0,0 -1.301,0.942 -1.293,-0.956 0.163,1.6 -1.474,0.642 1.469,0.656 -0.183,1.599 1.304,-0.944 1.292,0.958 L -0.19,2.897 1.286,2.254 -0.183,1.598 0,0 Z"
             style="fill:#f7d581;fill-opacity:1;fill-rule:evenodd;stroke:none"
             id="path838"
             inkscape:connector-curvature="0" /></g><g
           id="g840"
           transform="matrix(0.38876988,0,0,0.38876988,392.80302,204.08607)"><path
             d="m 0,0 c 0,0 -0.092,1.172 -0.229,2.93 -0.145,1.758 -0.258,4.102 -0.398,6.446 -0.06,1.172 -0.2,2.345 -0.217,3.443 0.004,1.099 0.096,2.125 0.217,3.004 0.225,1.758 0.627,2.93 0.627,2.93 l 0.18,0 c 0,0 0.402,-1.172 0.627,-2.93 C 0.928,14.944 1.02,13.918 1.023,12.819 1.007,11.721 0.866,10.548 0.807,9.376 0.667,7.032 0.554,4.688 0.409,2.93 0.271,1.172 0.18,0 0.18,0 L 0,0 Z"
             style="fill:#f47e14;fill-opacity:1;fill-rule:nonzero;stroke:none"
             id="path842"
             inkscape:connector-curvature="0" /></g><g
           id="g844"
           transform="matrix(0.38876988,0,0,0.38876988,403.69122,199.61277)"><path
             d="m 0,0 c 0,0 0.685,0.775 1.737,1.91 1.038,1.151 2.476,2.627 3.896,4.123 0.716,0.74 1.379,1.54 2.077,2.205 0.712,0.65 1.436,1.192 2.087,1.625 1.288,0.879 2.317,1.279 2.317,1.279 l 0.121,-0.132 c 0,0 -0.484,-0.992 -1.467,-2.202 C 10.281,8.196 9.682,7.519 8.974,6.864 8.253,6.223 7.4,5.63 6.603,4.978 4.994,3.688 3.403,2.378 2.17,1.44 0.951,0.486 0.121,-0.132 0.121,-0.132 L 0,0 Z"
             style="fill:#f47e14;fill-opacity:1;fill-rule:nonzero;stroke:none"
             id="path846"
             inkscape:connector-curvature="0" /></g><g
           id="g848"
           transform="matrix(0.38876988,0,0,0.38876988,382.99132,199.56149)"><path
             d="m 0,0 c 0,0 -0.83,0.618 -2.048,1.572 -1.234,0.938 -2.825,2.247 -4.434,3.537 -0.798,0.653 -1.65,1.246 -2.371,1.887 -0.708,0.655 -1.308,1.332 -1.793,1.943 -0.984,1.21 -1.469,2.203 -1.469,2.203 l 0.121,0.132 c 0,0 1.03,-0.4 2.318,-1.279 0.65,-0.433 1.375,-0.975 2.087,-1.625 0.698,-0.665 1.361,-1.465 2.077,-2.205 1.42,-1.496 2.858,-2.972 3.896,-4.123 1.053,-1.135 1.737,-1.91 1.737,-1.91 L 0,0 Z"
             style="fill:#f47e14;fill-opacity:1;fill-rule:nonzero;stroke:none"
             id="path850"
             inkscape:connector-curvature="0" /></g><g
           id="g852"
           transform="matrix(0.38876988,0,0,0.38876988,386.75924,203.66997)"><path
             d="M 0,0 C 0,0 -1.45,2.523 -2.729,5.114 -3.054,5.76 -3.452,6.376 -3.719,6.997 -3.968,7.625 -4.117,8.244 -4.206,8.79 -4.4,9.877 -4.295,10.695 -4.295,10.695 l 0.166,0.067 c 0,0 0.642,-0.519 1.254,-1.437 C -2.562,8.868 -2.242,8.318 -1.987,7.692 -1.75,7.06 -1.612,6.339 -1.399,5.648 -0.532,2.891 0.167,0.067 0.166,0.066 L 0,0 Z"
             style="fill:#e2e2e2;fill-opacity:1;fill-rule:nonzero;stroke:none"
             id="path854"
             inkscape:connector-curvature="0" /></g><g
           id="g856"
           transform="matrix(0.38876988,0,0,0.38876988,399.49297,203.69578)"><path
             d="m 0,0 c 0,0 0.697,2.825 1.563,5.582 0.213,0.69 0.352,1.411 0.587,2.043 0.255,0.626 0.576,1.177 0.889,1.633 0.611,0.919 1.253,1.437 1.253,1.437 l 0.166,-0.066 c 0,0 0.105,-0.818 -0.088,-1.905 C 4.281,8.178 4.132,7.558 3.884,6.93 3.616,6.31 3.218,5.694 2.895,5.047 1.615,2.457 0.166,-0.067 0.166,-0.067 L 0,0 Z"
             style="fill:#e2e2e2;fill-opacity:1;fill-rule:nonzero;stroke:none"
             id="path858"
             inkscape:connector-curvature="0" /></g><g
           id="g860"
           transform="matrix(0.38876988,0,0,0.38876988,366.48645,173.51449)"><path
             d="m 0,0 c 0,0 -1.082,-0.46 -2.705,-1.15 -1.62,-0.697 -3.807,-1.55 -5.984,-2.428 -1.093,-0.43 -2.159,-0.936 -3.195,-1.301 -1.043,-0.347 -2.045,-0.586 -2.917,-0.75 -1.738,-0.347 -2.977,-0.338 -2.977,-0.338 l -0.057,0.17 c 0,0 0.983,0.754 2.578,1.527 0.795,0.394 1.738,0.808 2.778,1.161 1.047,0.334 2.203,0.574 3.333,0.89 2.267,0.614 4.525,1.252 6.238,1.674 1.711,0.429 2.851,0.715 2.851,0.715 L 0,0 Z"
             style="fill:#f47e14;fill-opacity:1;fill-rule:nonzero;stroke:none"
             id="path862"
             inkscape:connector-curvature="0" /></g><g
           id="g864"
           transform="matrix(0.38876988,0,0,0.38876988,367.26266,185.25997)"><path
             d="m 0,0 c 0,0 -0.953,0.402 -2.364,1.04 -1.421,0.617 -3.278,1.51 -5.148,2.38 -0.93,0.444 -1.899,0.817 -2.751,1.268 -0.843,0.468 -1.588,0.983 -2.205,1.461 -1.243,0.941 -1.95,1.79 -1.95,1.79 l 0.086,0.157 c 0,0 1.096,-0.144 2.556,-0.691 0.734,-0.266 1.567,-0.619 2.413,-1.082 C -8.526,5.844 -7.692,5.225 -6.82,4.676 -5.085,3.562 -3.338,2.47 -2.056,1.599 -0.763,0.747 0.086,0.157 0.086,0.157 L 0,0 Z"
             style="fill:#f47e14;fill-opacity:1;fill-rule:nonzero;stroke:none"
             id="path866"
             inkscape:connector-curvature="0" /></g><g
           id="g868"
           transform="matrix(0.38876988,0,0,0.38876988,373.89815,165.65236)"><path
             d="m 0,0 c 0,0 -0.322,-0.983 -0.838,-2.442 -0.497,-1.468 -1.232,-3.393 -1.943,-5.329 -0.365,-0.963 -0.656,-1.96 -1.034,-2.847 -0.396,-0.88 -0.847,-1.664 -1.272,-2.32 -0.834,-1.317 -1.621,-2.092 -1.621,-2.092 l -0.164,0.073 c 10e-4,0 0.052,1.103 0.476,2.604 0.204,0.754 0.486,1.613 0.876,2.496 0.409,0.873 0.956,1.755 1.43,2.67 0.965,1.823 1.907,3.655 2.669,5.005 0.74,1.359 1.257,2.255 1.257,2.255 L 0,0 Z"
             style="fill:#f47e14;fill-opacity:1;fill-rule:nonzero;stroke:none"
             id="path870"
             inkscape:connector-curvature="0" /></g><g
           id="g872"
           transform="matrix(0.38876988,0,0,0.38876988,368.80425,167.91722)"><path
             d="m 0,0 c 0,0 -1.931,-2.177 -3.979,-4.215 -0.51,-0.513 -0.967,-1.086 -1.47,-1.537 -0.517,-0.435 -1.056,-0.774 -1.546,-1.033 -0.968,-0.529 -1.777,-0.69 -1.777,-0.69 l -0.117,0.137 c 0,0 0.287,0.773 0.964,1.645 0.333,0.443 0.753,0.922 1.265,1.362 0.524,0.425 1.163,0.786 1.751,1.207 2.337,1.7 4.793,3.261 4.793,3.261 L 0,0 Z"
             style="fill:#e2e2e2;fill-opacity:1;fill-rule:nonzero;stroke:none"
             id="path874"
             inkscape:connector-curvature="0" /></g><g
           id="g876"
           transform="matrix(0.38876988,0,0,0.38876988,364.72749,179.98082)"><path
             d="m 0,0 c 0,0 -2.899,-0.238 -5.789,-0.293 -0.722,-0.019 -1.449,-0.117 -2.124,-0.095 -0.674,0.043 -1.298,0.171 -1.83,0.323 -1.066,0.287 -1.762,0.731 -1.762,0.731 l 0.011,0.178 c 0,0 0.742,0.361 1.833,0.523 0.547,0.089 1.182,0.145 1.856,0.109 C -7.132,1.42 -6.421,1.239 -5.706,1.138 -2.842,0.75 0.011,0.179 0.011,0.179 L 0,0 Z"
             style="fill:#e2e2e2;fill-opacity:1;fill-rule:nonzero;stroke:none"
             id="path878"
             inkscape:connector-curvature="0" /></g><g
           id="g880"
           transform="matrix(0.38876988,0,0,0.38876988,420.33772,173.92301)"><path
             d="m 0,0 c 0,0 0.979,-0.135 2.448,-0.337 1.471,-0.197 3.417,-0.525 5.367,-0.831 0.975,-0.157 1.96,-0.264 2.868,-0.44 0.902,-0.201 1.728,-0.46 2.428,-0.718 1.404,-0.503 2.295,-1.041 2.294,-1.041 l -0.031,-0.147 c -0.001,0 -1.035,-0.117 -2.52,0.011 -0.744,0.058 -1.603,0.167 -2.506,0.361 -0.898,0.218 -1.838,0.532 -2.789,0.796 -1.901,0.535 -3.807,1.049 -5.225,1.484 -1.419,0.429 -2.365,0.715 -2.365,0.715 L 0,0 Z"
             style="fill:#f47e14;fill-opacity:1;fill-rule:nonzero;stroke:none"
             id="path882"
             inkscape:connector-curvature="0" /></g><g
           id="g884"
           transform="matrix(0.38876988,0,0,0.38876988,414.70931,165.78201)"><path
             d="m 0,0 c 0,0 0.503,-0.708 1.257,-1.77 0.76,-1.059 1.714,-2.505 2.687,-3.94 0.48,-0.722 1.018,-1.409 1.439,-2.102 0.406,-0.702 0.721,-1.395 0.961,-2.006 0.49,-1.216 0.635,-2.134 0.635,-2.134 l -0.131,-0.076 c 0,0 -0.728,0.577 -1.546,1.602 -0.415,0.509 -0.864,1.123 -1.275,1.822 -0.396,0.708 -0.731,1.514 -1.124,2.286 -0.77,1.553 -1.561,3.095 -2.11,4.277 -0.554,1.179 -0.924,1.965 -0.924,1.965 L 0,0 Z"
             style="fill:#f47e14;fill-opacity:1;fill-rule:nonzero;stroke:none"
             id="path886"
             inkscape:connector-curvature="0" /></g><g
           id="g888"
           transform="matrix(0.38876988,0,0,0.38876988,418.38287,182.79486)"><path
             d="M 0,0 C 0,0 0.663,0.561 1.659,1.401 2.65,2.246 4.012,3.318 5.36,4.408 6.04,4.946 6.68,5.54 7.336,6.017 8.001,6.48 8.665,6.852 9.255,7.142 c 1.171,0.59 2.073,0.81 2.073,0.81 l 0.086,-0.123 c 0,0 -0.514,-0.774 -1.467,-1.674 C 9.475,5.699 8.899,5.2 8.238,4.732 7.566,4.278 6.79,3.877 6.054,3.421 4.57,2.523 3.1,1.607 1.967,0.961 0.839,0.311 0.086,-0.123 0.086,-0.123 L 0,0 Z"
             style="fill:#f47e14;fill-opacity:1;fill-rule:nonzero;stroke:none"
             id="path890"
             inkscape:connector-curvature="0" /></g><g
           id="g892"
           transform="matrix(0.38876988,0,0,0.38876988,421.08148,178.9624)"><path
             d="M 0,0 C 0,0 0.582,0.189 1.461,0.442 2.337,0.712 3.516,1.007 4.69,1.324 5.279,1.474 5.857,1.691 6.415,1.799 6.975,1.89 7.511,1.902 7.976,1.877 8.902,1.841 9.556,1.608 9.556,1.608 L 9.581,1.459 c 0,0 -0.541,-0.434 -1.405,-0.771 C 7.744,0.512 7.234,0.348 6.675,0.251 6.113,0.17 5.496,0.186 4.891,0.135 3.677,0.05 2.467,-0.057 1.55,-0.087 0.638,-0.137 0.025,-0.148 0.025,-0.148 L 0,0 Z"
             style="fill:#e2e2e2;fill-opacity:1;fill-rule:nonzero;stroke:none"
             id="path894"
             inkscape:connector-curvature="0" /></g><g
           id="g896"
           transform="matrix(0.38876988,0,0,0.38876988,418.81643,168.49769)"><path
             d="M 0,0 C 0,0 0.552,-0.266 1.361,-0.691 2.182,-1.101 3.236,-1.703 4.305,-2.287 4.834,-2.585 5.401,-2.828 5.879,-3.136 6.347,-3.457 6.741,-3.819 7.06,-4.158 7.705,-4.825 8.016,-5.446 8.016,-5.446 L 7.932,-5.57 c 0,0 -0.692,0.06 -1.549,0.414 -0.434,0.172 -0.915,0.405 -1.387,0.722 -0.462,0.33 -0.896,0.768 -1.369,1.15 -0.936,0.778 -1.885,1.537 -2.567,2.149 -0.694,0.595 -1.144,1.01 -1.144,1.01 L 0,0 Z"
             style="fill:#e2e2e2;fill-opacity:1;fill-rule:nonzero;stroke:none"
             id="path898"
             inkscape:connector-curvature="0" /></g><g
           id="g900"
           transform="matrix(0.38876988,0,0,0.38876988,233.01708,-4.5305291)"><g
             id="g902" /><g
             id="g908"><g
               clip-path="url(#clipPath904)"
               id="g910"
               style="opacity:0.14999402"><g
                 transform="translate(423.0947,499.6479)"
                 id="g912"><path
                   d="m 0,0 c 3.859,-4.068 3.693,-10.503 -0.38,-14.367 -4.074,-3.863 -10.508,-3.695 -14.369,0.374 -3.867,4.076 -3.694,10.507 0.377,14.372 C -10.298,4.243 -3.87,4.077 0,0 m 15.925,9.993 -5.69,5.996 c -0.73,0.77 -1.959,0.806 -2.737,0.067 L 5.017,13.697 C 3.44,14.645 1.784,15.395 0.073,15.956 l 0.158,3.415 c 0.045,1.073 -0.785,1.978 -1.853,2.025 l -8.253,0.359 c -1.071,0.05 -1.972,-0.783 -2.019,-1.856 l -0.143,-3.228 c -2.101,-0.411 -4.159,-1.106 -6.119,-2.083 l -2.081,2.197 c -0.739,0.775 -1.965,0.811 -2.742,0.073 l -5.993,-5.685 c -0.776,-0.737 -0.805,-1.965 -0.069,-2.741 l 1.736,-1.83 c -1.188,-1.741 -2.12,-3.599 -2.809,-5.534 l -2.242,0.102 c -1.074,0.05 -1.975,-0.787 -2.022,-1.854 l -0.36,-8.253 c -0.048,-1.072 0.775,-1.971 1.844,-2.021 l 1.734,-0.077 c 0.428,-2.499 1.248,-4.948 2.471,-7.245 l -1.081,-1.022 c -0.776,-0.739 -0.808,-1.969 -0.075,-2.739 l 5.688,-5.997 c 0.735,-0.774 1.96,-0.801 2.738,-0.065 l 0.922,0.879 c 2.004,-1.305 4.162,-2.28 6.4,-2.932 l -0.056,-1.266 c -0.047,-1.066 0.789,-1.974 1.852,-2.026 l 8.255,-0.358 c 1.066,-0.046 1.972,0.785 2.018,1.856 l 0.069,1.456 c 2.469,0.562 4.878,1.526 7.108,2.891 l 1.169,-1.232 c 0.736,-0.776 1.959,-0.807 2.738,-0.072 l 5.992,5.686 c 0.777,0.738 0.808,1.962 0.072,2.738 l -1.508,1.59 c 1.037,1.84 1.826,3.784 2.348,5.788 l 2.477,-0.106 c 1.068,-0.048 1.976,0.78 2.019,1.852 l 0.359,8.252 c 0.053,1.065 -0.775,1.967 -1.843,2.016 l -2.993,0.127 c -0.534,2.079 -1.355,4.106 -2.457,6.015 l 2.327,2.204 c 0.776,0.741 0.81,1.964 0.076,2.738"
                   style="fill:#4c210c;fill-opacity:1;fill-rule:nonzero;stroke:none"
                   id="path914"
                   inkscape:connector-curvature="0" /></g><g
                 transform="translate(390.5562,476.543)"
                 id="g916"><path
                   d="m 0,0 c 4.229,-5.768 2.984,-13.882 -2.791,-18.115 -5.774,-4.233 -13.887,-2.986 -18.118,2.783 -4.237,5.777 -2.985,13.886 2.787,18.121 C -12.347,7.023 -4.242,5.779 0,0 M 14.799,6.252 9.912,12.917 C 9.284,13.773 8.069,13.964 7.204,13.329 L 4.445,11.301 c -1.444,1.138 -2.992,2.092 -4.619,2.865 l 0.587,3.367 c 0.18,1.059 -0.53,2.062 -1.583,2.242 l -8.143,1.397 c -1.056,0.184 -2.055,-0.529 -2.236,-1.587 l -0.549,-3.184 c -2.136,-0.143 -4.265,-0.573 -6.333,-1.295 l -1.788,2.441 c -0.634,0.862 -1.846,1.052 -2.711,0.418 l -6.66,-4.884 c -0.863,-0.634 -1.047,-1.849 -0.414,-2.711 l 1.491,-2.034 C -29.911,6.758 -31.07,5.033 -31.997,3.201 l -2.211,0.383 C -35.268,3.769 -36.266,3.052 -36.448,2 l -1.397,-8.143 c -0.182,-1.057 0.521,-2.052 1.574,-2.237 l 1.711,-0.294 c 0.109,-2.533 0.615,-5.066 1.538,-7.499 l -1.2,-0.878 c -0.864,-0.635 -1.05,-1.851 -0.421,-2.707 l 4.888,-6.666 c 0.631,-0.861 1.843,-1.043 2.708,-0.41 l 1.025,0.756 c 1.823,-1.547 3.842,-2.787 5.98,-3.715 l -0.216,-1.249 c -0.181,-1.052 0.535,-2.058 1.583,-2.243 l 8.144,-1.396 c 1.051,-0.179 2.054,0.531 2.236,1.587 l 0.251,1.436 c 2.52,0.246 5.032,0.898 7.417,1.971 l 1.003,-1.369 c 0.632,-0.862 1.842,-1.048 2.707,-0.416 l 6.661,4.885 c 0.864,0.635 1.049,1.845 0.417,2.708 l -1.296,1.767 c 1.26,1.694 2.288,3.524 3.059,5.446 l 2.443,-0.418 c 1.054,-0.182 2.059,0.525 2.237,1.584 L 18,-7.359 c 0.188,1.048 -0.521,2.048 -1.576,2.232 l -2.952,0.503 c -0.266,2.13 -0.825,4.243 -1.679,6.276 l 2.586,1.894 c 0.864,0.638 1.051,1.846 0.42,2.706"
                   style="fill:#4c210c;fill-opacity:1;fill-rule:nonzero;stroke:none"
                   id="path918"
                   inkscape:connector-curvature="0" /></g><g
                 transform="translate(469.2822,461.1699)"
                 id="g920"><path
                   d="m 0,0 c 1.213,-3.567 -0.704,-7.454 -4.282,-8.67 -3.578,-1.213 -7.461,0.7 -8.678,4.28 -1.212,3.577 0.702,7.464 4.283,8.673 C -5.097,5.498 -1.212,3.58 0,0 m 8.442,0.801 -1.4,4.133 C 6.859,5.461 6.28,5.752 5.747,5.571 L 4.028,4.99 C 3.485,5.786 2.862,6.514 2.161,7.156 l 0.835,1.6 C 3.25,9.27 3.049,9.885 2.552,10.143 l -3.869,1.998 c -0.508,0.263 -1.132,0.06 -1.387,-0.445 l -0.775,-1.52 c -1.104,0.277 -2.24,0.39 -3.401,0.355 l -0.507,1.514 c -0.182,0.543 -0.764,0.823 -1.295,0.646 l -4.137,-1.404 c -0.524,-0.176 -0.824,-0.763 -0.638,-1.297 l 0.427,-1.263 c -0.948,-0.571 -1.817,-1.26 -2.565,-2.03 l -1.049,0.537 c -0.512,0.267 -1.127,0.063 -1.392,-0.435 L -20.028,2.926 C -20.29,2.422 -20.09,1.803 -19.586,1.543 l 0.812,-0.413 c -0.354,-1.298 -0.496,-2.653 -0.413,-4.026 l -0.747,-0.25 c -0.544,-0.177 -0.827,-0.756 -0.645,-1.291 l 1.404,-4.133 c 0.177,-0.531 0.762,-0.826 1.299,-0.639 l 0.637,0.217 c 0.666,-1.067 1.488,-2.012 2.413,-2.822 l -0.298,-0.582 c -0.267,-0.51 -0.06,-1.131 0.438,-1.389 l 3.873,-2 c 0.503,-0.256 1.125,-0.057 1.38,0.443 l 0.362,0.686 c 1.303,-0.278 2.666,-0.342 4.043,-0.182 l 0.285,-0.855 c 0.18,-0.534 0.759,-0.815 1.291,-0.637 l 4.14,1.404 c 0.522,0.176 0.82,0.76 0.636,1.293 l -0.378,1.098 c 0.908,0.65 1.722,1.41 2.41,2.257 l 1.159,-0.601 c 0.506,-0.267 1.121,-0.062 1.384,0.441 l 1.996,3.868 c 0.255,0.509 0.064,1.13 -0.447,1.39 l -1.396,0.712 c 0.198,1.12 0.252,2.267 0.145,3.431 l 1.605,0.541 c 0.536,0.185 0.823,0.756 0.64,1.297"
                   style="fill:#4c210c;fill-opacity:1;fill-rule:nonzero;stroke:none"
                   id="path922"
                   inkscape:connector-curvature="0" /></g></g></g></g><g
           id="g924"
           transform="matrix(0.38876988,0,0,0.38876988,397.11479,190.88383)"><path
             d="m 0,0 c 3.859,-4.068 3.693,-10.503 -0.38,-14.367 -4.074,-3.863 -10.508,-3.695 -14.369,0.374 -3.867,4.076 -3.694,10.507 0.377,14.372 C -10.298,4.243 -3.87,4.077 0,0 m 15.925,9.993 -5.69,5.996 c -0.73,0.77 -1.959,0.806 -2.737,0.067 L 5.017,13.697 C 3.44,14.645 1.784,15.395 0.073,15.956 l 0.158,3.415 c 0.045,1.073 -0.785,1.978 -1.853,2.025 l -8.253,0.359 c -1.071,0.05 -1.972,-0.783 -2.019,-1.856 l -0.143,-3.228 c -2.101,-0.411 -4.159,-1.106 -6.119,-2.083 l -2.081,2.197 c -0.739,0.775 -1.965,0.811 -2.742,0.073 l -5.993,-5.685 c -0.776,-0.737 -0.805,-1.965 -0.069,-2.741 l 1.736,-1.83 c -1.188,-1.741 -2.12,-3.599 -2.809,-5.534 l -2.242,0.102 c -1.074,0.05 -1.975,-0.787 -2.022,-1.854 l -0.36,-8.253 c -0.048,-1.072 0.775,-1.971 1.844,-2.021 l 1.734,-0.077 c 0.428,-2.499 1.248,-4.948 2.471,-7.245 l -1.081,-1.022 c -0.776,-0.739 -0.808,-1.969 -0.075,-2.739 l 5.688,-5.997 c 0.735,-0.774 1.96,-0.801 2.738,-0.065 l 0.922,0.879 c 2.004,-1.305 4.162,-2.28 6.4,-2.932 l -0.056,-1.266 c -0.047,-1.066 0.789,-1.974 1.852,-2.026 l 8.255,-0.358 c 1.066,-0.046 1.972,0.785 2.018,1.856 l 0.069,1.456 c 2.469,0.562 4.878,1.526 7.108,2.891 l 1.169,-1.232 c 0.736,-0.776 1.959,-0.807 2.738,-0.072 l 5.992,5.686 c 0.777,0.738 0.808,1.962 0.072,2.738 l -1.508,1.59 c 1.037,1.84 1.826,3.784 2.348,5.788 l 2.477,-0.106 c 1.068,-0.048 1.976,0.78 2.019,1.852 l 0.359,8.252 c 0.053,1.065 -0.775,1.967 -1.843,2.016 l -2.993,0.127 c -0.534,2.079 -1.355,4.106 -2.457,6.015 l 2.327,2.204 c 0.776,0.741 0.81,1.964 0.076,2.738"
             style="fill:#adc9c9;fill-opacity:1;fill-rule:nonzero;stroke:none"
             id="path926"
             inkscape:connector-curvature="0" /></g><g
           id="g928"
           transform="matrix(0.38876988,0,0,0.38876988,384.4648,181.90135)"><path
             d="m 0,0 c 4.229,-5.768 2.984,-13.882 -2.791,-18.115 -5.774,-4.233 -13.887,-2.986 -18.118,2.783 -4.237,5.777 -2.985,13.886 2.787,18.121 C -12.347,7.023 -4.242,5.779 0,0 M 14.799,6.252 9.912,12.917 C 9.284,13.773 8.069,13.964 7.204,13.329 L 4.445,11.301 c -1.444,1.138 -2.992,2.092 -4.619,2.865 l 0.587,3.367 c 0.18,1.059 -0.53,2.062 -1.583,2.242 l -8.143,1.397 c -1.056,0.184 -2.055,-0.529 -2.236,-1.587 l -0.549,-3.184 c -2.136,-0.143 -4.265,-0.573 -6.333,-1.295 l -1.788,2.441 c -0.634,0.862 -1.846,1.052 -2.711,0.418 l -6.66,-4.884 c -0.863,-0.634 -1.047,-1.849 -0.414,-2.711 l 1.491,-2.034 C -29.911,6.758 -31.07,5.033 -31.997,3.201 l -2.211,0.383 C -35.268,3.769 -36.266,3.052 -36.448,2 l -1.397,-8.143 c -0.182,-1.057 0.521,-2.052 1.574,-2.237 l 1.711,-0.294 c 0.109,-2.533 0.615,-5.066 1.538,-7.499 l -1.2,-0.878 c -0.864,-0.635 -1.05,-1.851 -0.421,-2.707 l 4.888,-6.666 c 0.631,-0.861 1.843,-1.043 2.708,-0.41 l 1.025,0.756 c 1.823,-1.547 3.842,-2.787 5.98,-3.715 l -0.216,-1.249 c -0.181,-1.052 0.535,-2.058 1.583,-2.243 l 8.144,-1.396 c 1.051,-0.179 2.054,0.531 2.236,1.587 l 0.251,1.436 c 2.52,0.246 5.032,0.898 7.417,1.971 l 1.003,-1.369 c 0.632,-0.862 1.842,-1.048 2.707,-0.416 l 6.661,4.885 c 0.864,0.635 1.05,1.845 0.417,2.708 l -1.296,1.767 c 1.26,1.694 2.288,3.524 3.059,5.446 l 2.443,-0.418 c 1.054,-0.182 2.059,0.525 2.237,1.584 L 18,-7.359 c 0.188,1.048 -0.521,2.048 -1.576,2.232 l -2.952,0.503 c -0.266,2.13 -0.825,4.243 -1.679,6.276 l 2.586,1.894 c 0.864,0.638 1.051,1.846 0.42,2.706"
             style="fill:#dfefef;fill-opacity:1;fill-rule:nonzero;stroke:none"
             id="path930"
             inkscape:connector-curvature="0" /></g><g
           id="g932"
           transform="matrix(0.38876988,0,0,0.38876988,415.07109,175.92475)"><path
             d="m 0,0 c 1.213,-3.567 -0.704,-7.454 -4.282,-8.67 -3.578,-1.213 -7.461,0.7 -8.678,4.28 -1.212,3.577 0.702,7.464 4.283,8.673 C -5.097,5.498 -1.212,3.58 0,0 m 8.442,0.801 -1.4,4.133 C 6.859,5.461 6.28,5.752 5.747,5.571 L 4.028,4.99 C 3.485,5.786 2.862,6.514 2.161,7.156 l 0.835,1.6 C 3.25,9.27 3.049,9.885 2.552,10.143 l -3.869,1.998 c -0.508,0.263 -1.132,0.06 -1.387,-0.445 l -0.775,-1.52 c -1.104,0.277 -2.24,0.39 -3.401,0.355 l -0.507,1.514 c -0.182,0.543 -0.764,0.823 -1.295,0.646 l -4.137,-1.404 c -0.524,-0.176 -0.824,-0.763 -0.638,-1.297 l 0.427,-1.263 c -0.948,-0.571 -1.817,-1.26 -2.565,-2.03 l -1.049,0.537 c -0.512,0.267 -1.127,0.063 -1.392,-0.435 L -20.028,2.926 C -20.29,2.422 -20.09,1.803 -19.586,1.543 l 0.812,-0.413 c -0.354,-1.298 -0.496,-2.653 -0.413,-4.026 l -0.747,-0.25 c -0.544,-0.177 -0.827,-0.756 -0.645,-1.291 l 1.404,-4.133 c 0.177,-0.531 0.762,-0.826 1.299,-0.639 l 0.637,0.217 c 0.666,-1.067 1.488,-2.012 2.413,-2.822 l -0.298,-0.582 c -0.267,-0.51 -0.06,-1.131 0.438,-1.389 l 3.873,-2 c 0.503,-0.256 1.125,-0.057 1.38,0.443 l 0.362,0.686 c 1.303,-0.278 2.666,-0.342 4.043,-0.182 l 0.285,-0.855 c 0.18,-0.534 0.759,-0.815 1.291,-0.637 l 4.14,1.404 c 0.522,0.176 0.82,0.76 0.636,1.293 l -0.378,1.098 c 0.908,0.65 1.722,1.41 2.41,2.257 l 1.159,-0.601 c 0.506,-0.267 1.121,-0.062 1.384,0.441 l 1.996,3.868 c 0.255,0.509 0.064,1.13 -0.447,1.39 l -1.396,0.712 c 0.198,1.12 0.252,2.267 0.145,3.431 l 1.605,0.541 c 0.536,0.185 0.823,0.756 0.64,1.297"
             style="fill:#dfefef;fill-opacity:1;fill-rule:nonzero;stroke:none"
             id="path934"
             inkscape:connector-curvature="0" /></g><g
           id="g936"
           transform="matrix(0.38876988,0,0,0.38876988,390.40435,187.91056)"><path
             d="m 0,0 c 0,5.338 4.327,9.667 9.666,9.667 5.339,0 9.666,-4.329 9.666,-9.667 0,-5.338 -4.327,-9.667 -9.666,-9.667 C 4.327,-9.667 0,-5.338 0,0"
             style="fill:#dfefef;fill-opacity:1;fill-rule:nonzero;stroke:none"
             id="path938"
             inkscape:connector-curvature="0" /></g><g
           id="g940"
           transform="matrix(0.38876988,0,0,0.38876988,392.08889,188.10514)"><path
             d="m 0,0 c 0,2.945 2.387,5.333 5.333,5.333 2.946,0 5.333,-2.388 5.333,-5.333 0,-2.945 -2.387,-5.333 -5.333,-5.333 C 2.387,-5.333 0,-2.945 0,0"
             style="fill:#47b2ba;fill-opacity:1;fill-rule:evenodd;stroke:none"
             id="path942"
             inkscape:connector-curvature="0" /></g><g
           id="g944"
           transform="matrix(0.38876988,0,0,0.38876988,394.43554,191.74889)"><path
             d="M 0,0 C -2.914,0 -6.287,-1.277 -9.757,-3.694 L -41.589,-22.95 c -2.926,-2.041 -4.927,-4.916 -5.582,-8.062 -0.637,-3.06 0.024,-6.199 1.862,-8.838 2.073,-2.977 5.547,-4.684 9.532,-4.684 2.997,0 5.951,0.954 8.544,2.76 l 28.791,22.44 c 3.254,2.269 5.454,4.899 6.401,7.64 0.977,2.825 0.57,5.551 -1.207,8.104 C 5.093,-1.208 2.821,0 0,0 m -35.777,-46.534 c -4.648,0 -8.721,2.019 -11.173,5.541 -2.155,3.095 -2.929,6.784 -2.179,10.389 0.759,3.648 3.05,6.961 6.451,9.33 l 31.832,19.256 C -7.094,0.599 -3.324,2 0,2 3.465,2 6.367,0.462 8.393,-2.447 10.526,-5.51 11.03,-8.934 9.85,-12.348 8.762,-15.491 6.305,-18.463 2.743,-20.944 l -28.79,-22.439 c -2.973,-2.073 -6.323,-3.151 -9.73,-3.151"
             style="fill:#4b8a8c;fill-opacity:1;fill-rule:nonzero;stroke:none"
             id="path946"
             inkscape:connector-curvature="0" /></g><g
           id="g948"
           transform="matrix(0.38876988,0,0,0.38876988,391.43513,190.45619)"><path
             d="m 0,0 -0.107,-0.189 c -2.51,-3.54 -2.897,-9.201 2.184,-13.266 l 45.357,-29.378 c 2.553,-1.811 5.151,-2.795 7.35,-2.795 1.882,0 3.376,0.696 4.441,2.068 l 0.376,0.483 c 1.901,3.918 0.164,8.29 -4.664,11.713 L 13.212,1.164 C 11.028,2.711 8.676,3.042 7.094,3.042 4.099,3.042 1.324,1.85 0,0 m 54.784,-47.628 c -2.647,0 -5.577,1.086 -8.472,3.14 L 0.908,-15.075 c -5.875,4.694 -5.78,11.559 -2.692,15.979 l 0.102,0.181 c 1.697,2.441 5.059,3.957 8.776,3.957 2.686,0 5.215,-0.787 7.311,-2.274 L 56.13,-29.759 c 5.617,-3.982 7.631,-9.471 5.217,-14.299 l -0.106,-0.166 -0.437,-0.563 c -1.442,-1.858 -3.524,-2.841 -6.02,-2.841"
             style="fill:#4b8a8c;fill-opacity:1;fill-rule:nonzero;stroke:none"
             id="path950"
             inkscape:connector-curvature="0" /></g></g><text
         transform="scale(1,-1)"
         sodipodi:linespacing="125%"
         id="text6245"
         y="-33.054726"
         x="206.00179"
         style="font-style:normal;font-weight:normal;font-size:32.35375595px;line-height:125%;font-family:sans-serif;letter-spacing:0px;word-spacing:0px;fill:#317d82;fill-opacity:1;stroke:none;stroke-width:1px;stroke-linecap:butt;stroke-linejoin:miter;stroke-opacity:1"
         xml:space="preserve"><tspan
           style="font-style:normal;font-variant:normal;font-weight:bold;font-stretch:normal;font-size:32.35400009px;line-height:125%;font-family:'Averia Sans Libre';-inkscape-font-specification:'Averia Sans Libre, Bold';text-align:start;writing-mode:lr-tb;text-anchor:start;fill:#317d82;fill-opacity:1"
           y="-33.054726"
           x="206.00179"
           id="tspan6247"
           sodipodi:role="line">Awesome Static Analysis!</tspan></text>
</g></g></svg>